<svg width="1440" height="1185" viewBox="0 0 1440 1185" fill="none" xmlns="http://www.w3.org/2000/svg">
<path opacity="0.1" d="M-579.667 530.098C-579.667 530.098 -158.924 -324.292 546.058 136.37C1251.04 597.032 2026 27.7025 2026 27.7025L1734.85 1185C1734.85 1185 -622 1027.51 -622 1022.26C-622 1017.01 -579.667 530.098 -579.667 530.098Z" fill="#322035"/>
<path opacity="0.1" d="M-88.0394 473.873C-88.0394 473.873 249.488 -211.49 815.036 158.038C1380.58 527.565 1365.34 427.551 1652.96 450.712C1940.59 473.873 1768.71 999.213 1768.71 999.213C1768.71 999.213 -122 872.879 -122 868.667C-122 864.456 -88.0394 473.873 -88.0394 473.873Z" fill="#564B7C"/>
<path d="M349.794 277.616C346.937 277.618 344.145 276.773 341.769 275.187C339.394 273.601 337.542 271.346 336.449 268.707C335.356 266.068 335.071 263.165 335.629 260.363C336.187 257.562 337.564 254.99 339.586 252.972C341.607 250.954 344.182 249.581 346.984 249.027C349.786 248.473 352.689 248.763 355.326 249.861C357.964 250.958 360.216 252.813 361.798 255.192C363.38 257.57 364.22 260.364 364.213 263.22C364.201 267.038 362.677 270.696 359.975 273.394C357.273 276.092 353.612 277.61 349.794 277.616ZM349.794 249.65C347.116 249.65 344.497 250.444 342.27 251.931C340.043 253.419 338.307 255.533 337.281 258.007C336.255 260.481 335.985 263.203 336.506 265.831C337.027 268.458 338.315 270.871 340.207 272.767C342.099 274.662 344.51 275.954 347.137 276.48C349.763 277.005 352.486 276.74 354.961 275.718C357.437 274.697 359.554 272.964 361.046 270.74C362.537 268.515 363.335 265.898 363.34 263.22C363.342 261.44 362.993 259.676 362.313 258.031C361.633 256.385 360.635 254.89 359.377 253.629C358.119 252.369 356.626 251.369 354.981 250.687C353.337 250.004 351.574 249.652 349.794 249.65Z" fill="#E0E0E0"/>
<path d="M346.1 261.627C346.1 261.627 347.575 258.087 347.67 257.497C347.554 256.432 347.337 255.381 347.021 254.358C346.938 253.945 348.826 253.402 349.735 254.736C350.588 255.884 351.006 257.297 350.915 258.724L355.635 257.757C356.016 257.691 356.408 257.778 356.726 257.999C357.044 258.22 357.262 258.556 357.334 258.937C357.395 259.209 357.383 259.493 357.3 259.76C357.217 260.027 357.066 260.268 356.862 260.459C357.155 260.489 357.429 260.616 357.643 260.818C357.856 261.021 357.997 261.289 358.042 261.58C358.11 261.909 358.064 262.252 357.912 262.552C357.76 262.852 357.51 263.092 357.204 263.232C357.494 263.517 357.681 263.891 357.735 264.294C357.756 264.64 357.669 264.984 357.485 265.278C357.301 265.573 357.029 265.802 356.709 265.934C356.912 266.243 357.056 266.587 357.133 266.949C357.177 267.379 357.053 267.81 356.787 268.15C356.521 268.491 356.134 268.716 355.706 268.778L347.965 270.383L346.1 261.627Z" fill="#E0E0E0"/>
<path d="M344.928 261.592L341.554 262.293L343.67 272.483L347.043 271.782L344.928 261.592Z" fill="#E0E0E0"/>
</svg>
