<svg width="20" height="20" viewBox="0 0 20 20" fill="none" xmlns="http://www.w3.org/2000/svg">
<circle cx="10" cy="10" r="10" fill="#FFC7CE" fill-opacity="0.25"/>
<path d="M13.8466 9.78629C13.8481 10.3503 13.7163 10.9068 13.462 11.4102C13.1605 12.0135 12.6969 12.521 12.1233 12.8757C11.5497 13.2305 10.8886 13.4185 10.2141 13.4188C9.65007 13.4202 9.09366 13.2885 8.59019 13.0342L6.1543 13.8461L6.96626 11.4102C6.71196 10.9068 6.58018 10.3503 6.58165 9.78629C6.58191 9.11183 6.76994 8.45076 7.12469 7.87713C7.47943 7.3035 7.98688 6.83996 8.59019 6.53844C9.09366 6.28413 9.65007 6.15235 10.2141 6.15382H10.4278C11.3185 6.20296 12.1599 6.57893 12.7907 7.20974C13.4215 7.84055 13.7975 8.68187 13.8466 9.57262V9.78629Z" stroke="#EB5757" stroke-linecap="round" stroke-linejoin="round"/>
</svg>
