<svg width="40" height="40" viewBox="0 0 40 40" fill="none" xmlns="http://www.w3.org/2000/svg">
<path d="M26.6668 26.6667L20.0002 20L13.3335 26.6667" stroke="#828282" stroke-width="2" stroke-linecap="round" stroke-linejoin="round"/>
<path d="M20 20V35" stroke="#828282" stroke-width="2" stroke-linecap="round" stroke-linejoin="round"/>
<path d="M33.9833 30.6503C35.6088 29.7641 36.893 28.3618 37.6331 26.6647C38.3731 24.9676 38.527 23.0723 38.0703 21.2781C37.6136 19.4839 36.5724 17.8928 35.111 16.756C33.6497 15.6193 31.8514 15.0015 29.9999 15.0003H27.8999C27.3955 13.049 26.4552 11.2375 25.1498 9.70195C23.8445 8.16638 22.208 6.94672 20.3634 6.13464C18.5189 5.32257 16.5142 4.93923 14.5001 5.01344C12.4861 5.08764 10.515 5.61747 8.73523 6.56307C6.95541 7.50868 5.41312 8.84547 4.2243 10.4729C3.03549 12.1004 2.23108 13.9762 1.87157 15.9593C1.51205 17.9424 1.60678 19.9812 2.14862 21.9224C2.69047 23.8636 3.66534 25.6567 4.99993 27.167" stroke="#828282" stroke-width="2" stroke-linecap="round" stroke-linejoin="round"/>
<path d="M26.6668 26.6667L20.0002 20L13.3335 26.6667" stroke="#828282" stroke-width="2" stroke-linecap="round" stroke-linejoin="round"/>
</svg>
