<svg width="27" height="22" viewBox="0 0 27 22" fill="none" xmlns="http://www.w3.org/2000/svg">
<path d="M17.6743 15.4436L13.2292 10.9985L8.78418 15.4436" stroke="white" stroke-width="2" stroke-linecap="round" stroke-linejoin="round"/>
<path d="M13.2295 10.9985V20.9999" stroke="white" stroke-width="2" stroke-linecap="round" stroke-linejoin="round"/>
<path d="M22.5533 18.0996C23.6372 17.5087 24.4934 16.5737 24.9868 15.4422C25.4803 14.3106 25.5829 13.0469 25.2784 11.8506C24.9739 10.6543 24.2796 9.59345 23.3053 8.8355C22.3309 8.07755 21.1319 7.66566 19.8974 7.66485H18.4972C18.1608 6.36383 17.5339 5.15599 16.6636 4.13213C15.7932 3.10828 14.7021 2.29506 13.4722 1.7536C12.2423 1.21215 10.9057 0.956551 9.56278 1.00603C8.21989 1.05551 6.90569 1.40877 5.71899 2.03926C4.53228 2.66975 3.50394 3.56107 2.71129 4.64619C1.91864 5.73132 1.3823 6.98201 1.14259 8.30426C0.902877 9.6265 0.966036 10.9859 1.32732 12.2802C1.6886 13.5745 2.3386 14.7701 3.22845 15.7771" stroke="white" stroke-width="2" stroke-linecap="round" stroke-linejoin="round"/>
<path d="M17.6743 15.4436L13.2292 10.9985L8.78418 15.4436" stroke="white" stroke-width="2" stroke-linecap="round" stroke-linejoin="round"/>
</svg>
