<svg width="20" height="20" viewBox="0 0 20 20" fill="none" xmlns="http://www.w3.org/2000/svg">
<path fill-rule="evenodd" clip-rule="evenodd" d="M0.833496 10.0002C2.41933 13.801 5.41683 16.6668 10.0002 16.6668C14.5835 16.6668 17.581 13.801 19.1668 10.0002C17.581 6.1993 14.5835 3.3335 10.0002 3.3335C5.41683 3.3335 2.41933 6.1993 0.833496 10.0002ZM7.50016 10.0002C7.50016 11.3852 8.61508 12.5002 10.0002 12.5002C11.3852 12.5002 12.5002 11.3852 12.5002 10.0002C12.5002 8.61508 11.3852 7.50016 10.0002 7.50016C8.61508 7.50016 7.50016 8.61508 7.50016 10.0002ZM5.8335 10.0002C5.8335 7.69461 7.69461 5.8335 10.0002 5.8335C12.3057 5.8335 14.1668 7.69461 14.1668 10.0002C14.1668 12.3057 12.3057 14.1668 10.0002 14.1668C7.69461 14.1668 5.8335 12.3057 5.8335 10.0002Z" fill="#051033" fill-opacity="0.01"/>
<mask id="mask0" mask-type="alpha" maskUnits="userSpaceOnUse" x="0" y="3" width="20" height="14">
<path fill-rule="evenodd" clip-rule="evenodd" d="M0.833496 10.0002C2.41933 13.801 5.41683 16.6668 10.0002 16.6668C14.5835 16.6668 17.581 13.801 19.1668 10.0002C17.581 6.1993 14.5835 3.3335 10.0002 3.3335C5.41683 3.3335 2.41933 6.1993 0.833496 10.0002ZM7.50016 10.0002C7.50016 11.3852 8.61508 12.5002 10.0002 12.5002C11.3852 12.5002 12.5002 11.3852 12.5002 10.0002C12.5002 8.61508 11.3852 7.50016 10.0002 7.50016C8.61508 7.50016 7.50016 8.61508 7.50016 10.0002ZM5.8335 10.0002C5.8335 7.69461 7.69461 5.8335 10.0002 5.8335C12.3057 5.8335 14.1668 7.69461 14.1668 10.0002C14.1668 12.3057 12.3057 14.1668 10.0002 14.1668C7.69461 14.1668 5.8335 12.3057 5.8335 10.0002Z" fill="white"/>
</mask>
<g mask="url(#mask0)">
<path fill-rule="evenodd" clip-rule="evenodd" d="M0 0H20V20H0V0Z" fill="#C9CED6"/>
</g>
</svg>
