<svg width="15" height="22" viewBox="0 0 15 22" fill="none" xmlns="http://www.w3.org/2000/svg">
<path d="M7.3635 1C6.64019 1 5.94649 1.28734 5.43503 1.7988C4.92357 2.31026 4.63623 3.00396 4.63623 3.72727V11C4.63623 11.7233 4.92357 12.417 5.43503 12.9285C5.94649 13.4399 6.64019 13.7273 7.3635 13.7273C8.08682 13.7273 8.78051 13.4399 9.29198 12.9285C9.80344 12.417 10.0908 11.7233 10.0908 11V3.72727C10.0908 3.00396 9.80344 2.31026 9.29198 1.7988C8.78051 1.28734 8.08682 1 7.3635 1V1Z" stroke="#564B7C" stroke-width="2" stroke-linecap="round" stroke-linejoin="round"/>
<path d="M13.7273 9.18164V10.9998C13.7273 12.6876 13.0568 14.3062 11.8634 15.4996C10.67 16.693 9.05138 17.3635 7.36364 17.3635C5.6759 17.3635 4.05728 16.693 2.86387 15.4996C1.67045 14.3062 1 12.6876 1 10.9998V9.18164" stroke="#564B7C" stroke-width="2" stroke-linecap="round" stroke-linejoin="round"/>
<path d="M7.36377 17.3638V21.0001" stroke="#564B7C" stroke-width="2" stroke-linecap="round" stroke-linejoin="round"/>
<path d="M3.72705 21H10.9998" stroke="#564B7C" stroke-width="2" stroke-linecap="round" stroke-linejoin="round"/>
</svg>
