<svg width="117" height="101" viewBox="0 0 117 101" fill="none" xmlns="http://www.w3.org/2000/svg">
<g clip-path="url(#clip0)">
<path fill-rule="evenodd" clip-rule="evenodd" d="M31.7094 17.1346C31.894 16.7773 31.9306 16.3853 31.7752 16.0317L23.8624 -1.97907L20.6807 -0.581242L28.0258 16.1371L7.34509 25.2229L8.4751 27.795L30.7466 18.0102C31.1841 17.818 31.5196 17.5018 31.7043 17.1445L31.7122 17.141L31.7094 17.1346ZM39.9528 35.8977C40.3408 36.0033 40.6571 36.248 40.8096 36.5952L48.7225 54.6059L45.5409 56.0038L38.1958 39.2855L17.5152 48.3714L16.3851 45.7993L38.6566 36.0145C39.1021 35.8188 39.554 35.789 39.942 35.8947L39.9528 35.8977ZM63.147 25.7075C62.9623 26.0648 62.9258 26.4567 63.0811 26.8104L70.994 44.8211L74.1757 43.4233L66.8306 26.705L87.5113 17.6191L86.3813 15.0471L64.1098 24.8319C63.6723 25.0241 63.3368 25.3403 63.1521 25.6976L63.1442 25.7011L63.147 25.7075ZM56.6605 3.55661L49.3155 -13.1617L46.1339 -11.7639L54.0439 6.24046C54.1993 6.59411 54.5155 6.83874 54.9036 6.94442C55.3024 7.05303 55.7543 7.02326 56.1918 6.83106L78.4712 -2.95723L77.3412 -5.52928L56.6605 3.55661ZM24.4875 25.3628C24.1767 24.6555 24.6384 23.7623 25.5133 23.3779L33.4674 19.8833C33.8893 19.698 34.3535 19.6557 34.7578 19.7658C35.1621 19.8759 35.4734 20.1294 35.6232 20.4704C35.7731 20.8115 35.7492 21.2122 35.5568 21.5845C35.3644 21.9567 35.0193 22.27 34.5974 22.4554L26.6433 25.9499C26.2214 26.1353 25.7573 26.1776 25.353 26.0675C24.9487 25.9574 24.6373 25.7039 24.4875 25.3628ZM29.0075 35.651C28.6968 34.9437 29.1584 34.0505 30.0333 33.6661L37.9874 30.1715C38.4094 29.9861 38.8735 29.9439 39.2778 30.054C39.6821 30.1641 39.9934 30.4175 40.1433 30.7586C40.2931 31.0997 40.2692 31.5004 40.0769 31.8727C39.8845 32.2449 39.5394 32.5582 39.1175 32.7436L31.1633 36.2381C30.7414 36.4235 30.2773 36.4658 29.873 36.3557C29.4687 36.2456 29.1574 35.9921 29.0075 35.651ZM34.3891 13.3414C34.2392 13.0003 34.2631 12.5996 34.4555 12.2273C34.6479 11.8551 34.993 11.5418 35.4149 11.3565C35.8368 11.1711 36.3009 11.1288 36.7052 11.2389C37.1095 11.349 37.4208 11.6025 37.5707 11.9436L38.7007 14.5156C38.8505 14.8567 38.8267 15.2574 38.6343 15.6297C38.4419 16.0019 38.0968 16.3152 37.6749 16.5006C37.253 16.6859 36.7888 16.7282 36.3845 16.6181C35.9802 16.508 35.6689 16.2545 35.5191 15.9134L34.3891 13.3414ZM47.1156 7.75009C46.9658 7.40902 46.9897 7.00828 47.182 6.63603C47.3744 6.26378 47.7195 5.95052 48.1414 5.76515C48.5633 5.57979 49.0275 5.53751 49.4318 5.64761C49.8361 5.75772 50.1474 6.01119 50.2973 6.35226L51.4273 8.92431C51.5771 9.26538 51.5532 9.66612 51.3608 10.0384C51.1685 10.4106 50.8234 10.7239 50.4015 10.9092C49.9795 11.0946 49.5154 11.1369 49.1111 11.0268C48.7068 10.9167 48.3955 10.6632 48.2456 10.3221L47.1156 7.75009ZM43.4291 33.9178C43.2793 33.5767 43.3031 33.176 43.4955 32.8037C43.6879 32.4315 44.033 32.1182 44.4549 31.9328C44.8768 31.7475 45.341 31.7052 45.7453 31.8153C46.1496 31.9254 46.4609 32.1789 46.6107 32.5199L47.7408 35.092C47.8906 35.4331 47.8667 35.8338 47.6743 36.2061C47.482 36.5783 47.1368 36.8916 46.7149 37.0769C46.293 37.2623 45.8289 37.3046 45.4246 37.1945C45.0203 37.0844 44.709 36.8309 44.5591 36.4898L43.4291 33.9178ZM56.1557 28.3265C56.0058 27.9854 56.0297 27.5846 56.2221 27.2124C56.4145 26.8401 56.7596 26.5269 57.1815 26.3415C57.6034 26.1562 58.0676 26.1139 58.4719 26.224C58.8762 26.3341 59.1875 26.5876 59.3373 26.9286L60.4673 29.5007C60.6172 29.8418 60.5933 30.2425 60.4009 30.6147C60.2085 30.987 59.8634 31.3003 59.4415 31.4856C59.0196 31.671 58.5554 31.7133 58.1511 31.6032C57.7468 31.493 57.4355 31.2396 57.2857 30.8985L56.1557 28.3265ZM49.0791 46.778C48.9293 46.4369 48.9532 46.0362 49.1456 45.6639C49.3379 45.2917 49.683 44.9784 50.105 44.7931C50.5269 44.6077 50.991 44.5654 51.3953 44.6755C51.7996 44.7856 52.1109 45.0391 52.2608 45.3802L53.9558 49.2382C54.1056 49.5793 54.0817 49.9801 53.8894 50.3523C53.697 50.7246 53.3519 51.0378 52.93 51.2232C52.5081 51.4085 52.0439 51.4508 51.6396 51.3407C51.2353 51.2306 50.924 50.9771 50.7742 50.6361L49.0791 46.778ZM61.8057 41.1867C61.6559 40.8456 61.6798 40.4449 61.8721 40.0726C62.0645 39.7004 62.4096 39.3871 62.8315 39.2018C63.2534 39.0164 63.7176 38.9741 64.1219 39.0842C64.5262 39.1943 64.8375 39.4478 64.9874 39.7889L66.6824 43.6469C66.8322 43.988 66.8083 44.3887 66.6159 44.761C66.4236 45.1332 66.0785 45.4465 65.6565 45.6319C65.2346 45.8172 64.7705 45.8595 64.3662 45.7494C63.9619 45.6393 63.6506 45.3858 63.5007 45.0448L61.8057 41.1867ZM28.174 -0.804852C28.0242 -1.14593 28.0481 -1.54667 28.2404 -1.91891C28.4328 -2.29116 28.7779 -2.60443 29.1998 -2.78979C29.6217 -2.97515 30.0859 -3.01743 30.4902 -2.90733C30.8945 -2.79722 31.2058 -2.54375 31.3557 -2.20268L33.0507 1.65539C33.2005 1.99646 33.1766 2.3972 32.9842 2.76945C32.7919 3.1417 32.4468 3.45496 32.0248 3.64033C31.6029 3.82569 31.1388 3.86797 30.7345 3.75787C30.3302 3.64776 30.0189 3.39429 29.869 3.05322L28.174 -0.804852ZM40.9006 -6.39616C40.7507 -6.73724 40.7746 -7.13798 40.967 -7.51023C41.1594 -7.88247 41.5045 -8.19574 41.9264 -8.3811C42.3483 -8.56646 42.8125 -8.60874 43.2168 -8.49864C43.6211 -8.38854 43.9324 -8.13507 44.0822 -7.79399L45.7772 -3.93592C45.9271 -3.59485 45.9032 -3.19411 45.7108 -2.82186C45.5184 -2.44961 45.1733 -2.13635 44.7514 -1.95099C44.3295 -1.76562 43.8653 -1.72334 43.4611 -1.83345C43.0568 -1.94355 42.7454 -2.19702 42.5956 -2.53809L40.9006 -6.39616ZM57.7024 49.1264C57.5526 48.7854 57.5765 48.3846 57.7689 48.0124C57.9612 47.6401 58.3063 47.3269 58.7283 47.1415C59.1502 46.9561 59.6143 46.9139 60.0186 47.024C60.4229 47.1341 60.7342 47.3875 60.8841 47.7286L61.4491 49.0146L58.2674 50.4125L57.7024 49.1264ZM38.4923 5.40165C38.3425 5.06058 38.3664 4.65984 38.5587 4.28759C38.7511 3.91534 39.0962 3.60208 39.5181 3.41672C39.9401 3.23135 40.4042 3.18907 40.8085 3.29918C41.2128 3.40928 41.5241 3.66275 41.674 4.00382L44.499 10.4339C44.6488 10.775 44.6249 11.1758 44.4326 11.548C44.2402 11.9203 43.8951 12.2335 43.4732 12.4189C43.0513 12.6042 42.5871 12.6465 42.1828 12.5364C41.7785 12.4263 41.4672 12.1728 41.3173 11.8318L38.4923 5.40165ZM53.6272 -11.9875C53.4773 -12.3286 53.5012 -12.7293 53.6936 -13.1015C53.886 -13.4738 54.2311 -13.787 54.653 -13.9724C55.0749 -14.1578 55.539 -14.2001 55.9433 -14.09C56.3476 -13.9798 56.6589 -13.7264 56.8088 -13.3853L59.0688 -8.24121C59.2187 -7.90014 59.1948 -7.4994 59.0024 -7.12715C58.81 -6.7549 58.4649 -6.44164 58.043 -6.25627C57.6211 -6.07091 57.1569 -6.02863 56.7526 -6.13873C56.3483 -6.24884 56.037 -6.50231 55.8872 -6.84338L53.6272 -11.9875ZM73.9673 34.3094C73.8174 33.9683 73.8413 33.5675 74.0337 33.1953C74.2261 32.823 74.5712 32.5098 74.9931 32.3244C75.415 32.1391 75.8792 32.0968 76.2835 32.2069C76.6878 32.317 76.9991 32.5705 77.1489 32.9115L79.4089 38.0556C79.5588 38.3967 79.5349 38.7974 79.3425 39.1697C79.1501 39.5419 78.805 39.8552 78.3831 40.0406C77.9612 40.2259 77.497 40.2682 77.0927 40.1581C76.6885 40.048 76.3771 39.7945 76.2273 39.4534L73.9673 34.3094ZM35.7876 51.0833C35.6377 50.7422 35.6616 50.3415 35.854 49.9692C36.0464 49.597 36.3915 49.2837 36.8134 49.0984C37.2353 48.913 37.6995 48.8707 38.1038 48.9808C38.508 49.0909 38.8194 49.3444 38.9692 49.6855L41.2292 54.8296C41.3791 55.1706 41.3552 55.5714 41.1628 55.9436C40.9704 56.3159 40.6253 56.6291 40.2034 56.8145C39.7815 56.9999 39.3173 57.0421 38.913 56.932C38.5087 56.8219 38.1974 56.5685 38.0476 56.2274L35.7876 51.0833ZM15.4474 4.78646C15.2976 4.44538 15.3215 4.04464 15.5139 3.6724C15.7062 3.30015 16.0513 2.98689 16.4733 2.80152C16.8952 2.61616 17.3593 2.57388 17.7636 2.68398C18.1679 2.79409 18.4792 3.04756 18.6291 3.38863L20.8891 8.53272C21.0389 8.8738 21.0151 9.27454 20.8227 9.64679C20.6303 10.019 20.2852 10.3323 19.8633 10.5177C19.4414 10.703 18.9772 10.7453 18.5729 10.6352C18.1686 10.5251 17.8573 10.2716 17.7075 9.93055L15.4474 4.78646ZM33.4073 -6.17255L36.5889 -7.57038L37.1539 -6.28436C37.3038 -5.94328 37.2799 -5.54254 37.0875 -5.1703C36.8951 -4.79805 36.55 -4.48479 36.1281 -4.29942C35.7062 -4.11406 35.242 -4.07178 34.8378 -4.18188C34.4335 -4.29199 34.1221 -4.54546 33.9723 -4.88653L33.4073 -6.17255ZM50.3574 32.4081C50.2075 32.0671 50.2314 31.6663 50.4238 31.2941C50.6162 30.9218 50.9613 30.6086 51.3832 30.4232C51.8051 30.2378 52.2693 30.1956 52.6736 30.3057C53.0779 30.4158 53.3892 30.6692 53.539 31.0103L56.3641 37.4404C56.5139 37.7815 56.49 38.1822 56.2976 38.5545C56.1053 38.9267 55.7601 39.24 55.3382 39.4254C54.9163 39.6107 54.4522 39.653 54.0479 39.5429C53.6436 39.4328 53.3323 39.1793 53.1824 38.8383L50.3574 32.4081ZM54.7131 12.0835C54.4024 11.3761 54.864 10.4829 55.7389 10.0985L63.693 6.60396C64.1149 6.41859 64.5791 6.37631 64.9834 6.48641C65.3877 6.59652 65.699 6.84999 65.8488 7.19107C65.9987 7.53214 65.9748 7.93288 65.7824 8.30513C65.5901 8.67738 65.2449 8.99064 64.823 9.176L56.8689 12.6706C56.447 12.8559 55.9829 12.8982 55.5786 12.7881C55.1743 12.678 54.863 12.4245 54.7131 12.0835ZM59.2331 22.3716C58.9224 21.6643 59.384 20.7711 60.2589 20.3867L68.2131 16.8921C68.635 16.7068 69.0991 16.6645 69.5034 16.7746C69.9077 16.8847 70.219 17.1382 70.3689 17.4793C70.5187 17.8203 70.4948 18.2211 70.3025 18.5933C70.1101 18.9656 69.765 19.2788 69.3431 19.4642L61.389 22.9588C60.967 23.1441 60.5029 23.1864 60.0986 23.0763C59.6943 22.9662 59.383 22.7127 59.2331 22.3716ZM35.2666 28.2984C35.6885 28.113 36.0336 27.7998 36.226 27.4275C36.4184 27.0553 36.4423 26.6545 36.2924 26.3134C36.1426 25.9724 35.8313 25.7189 35.427 25.6088C35.0227 25.4987 34.5585 25.541 34.1366 25.7263C33.7147 25.9117 33.3696 26.225 33.1772 26.5972C32.9848 26.9694 32.9609 27.3702 33.1108 27.7113C33.2606 28.0523 33.572 28.3058 33.9763 28.4159C34.3806 28.526 34.8447 28.4837 35.2666 28.2984ZM48.975 42.221C49.3969 42.0357 49.742 41.7224 49.9343 41.3501C50.1267 40.9779 50.1506 40.5772 50.0008 40.2361C49.8509 39.895 49.5396 39.6415 49.1353 39.5314C48.731 39.4213 48.2669 39.4636 47.8449 39.649C47.423 39.8343 47.0779 40.1476 46.8855 40.5198C46.6932 40.8921 46.6693 41.2928 46.8191 41.6339C46.969 41.975 47.2803 42.2285 47.6846 42.3386C48.0889 42.4487 48.553 42.4064 48.975 42.221ZM61.7015 36.6297C62.1234 36.4443 62.4685 36.1311 62.6609 35.7588C62.8533 35.3866 62.8772 34.9858 62.7273 34.6448C62.5775 34.3037 62.2662 34.0502 61.8619 33.9401C61.4576 33.83 60.9934 33.8723 60.5715 34.0577C60.1496 34.243 59.8045 34.5563 59.6121 34.9285C59.4197 35.3008 59.3958 35.7015 59.5457 36.0426C59.6955 36.3837 60.0069 36.6371 60.4112 36.7472C60.8154 36.8573 61.2796 36.8151 61.7015 36.6297ZM34.2849 8.78442C34.7068 8.59905 35.0519 8.28579 35.2443 7.91354C35.4366 7.5413 35.4605 7.14056 35.3107 6.79948C35.1608 6.45841 34.8495 6.20494 34.4452 6.09483C34.0409 5.98473 33.5768 6.02701 33.1549 6.21237C32.7329 6.39774 32.3878 6.711 32.1955 7.08325C32.0031 7.4555 31.9792 7.85623 32.129 8.19731C32.2789 8.53838 32.5902 8.79185 32.9945 8.90196C33.3988 9.01206 33.863 8.96978 34.2849 8.78442ZM47.0114 3.19311C47.4333 3.00774 47.7784 2.69448 47.9708 2.32223C48.1632 1.94998 48.1871 1.54924 48.0372 1.20817C47.8874 0.867095 47.5761 0.613625 47.1718 0.503521C46.7675 0.393417 46.3033 0.435698 45.8814 0.621061C45.4595 0.806424 45.1144 1.11969 44.922 1.49194C44.7297 1.86418 44.7058 2.26492 44.8556 2.606C45.0055 2.94707 45.3168 3.20054 45.7211 3.31065C46.1254 3.42075 46.5895 3.37847 47.0114 3.19311ZM38.3881 0.84467C38.81 0.659307 39.1552 0.346043 39.3475 -0.0262042C39.5399 -0.398452 39.5638 -0.799193 39.414 -1.14027C39.2641 -1.48134 38.9528 -1.73481 38.5485 -1.84492C38.1442 -1.95502 37.68 -1.91274 37.2581 -1.72738C36.8362 -1.54201 36.4911 -1.22875 36.2987 -0.856501C36.1064 -0.484252 36.0825 -0.0835135 36.2323 0.257561C36.3822 0.598636 36.6935 0.852106 37.0978 0.96221C37.5021 1.07231 37.9662 1.03003 38.3881 0.84467ZM57.5982 44.5695C58.0202 44.3841 58.3653 44.0708 58.5576 43.6986C58.75 43.3263 58.7739 42.9256 58.6241 42.5845C58.4742 42.2434 58.1629 41.99 57.7586 41.8799C57.3543 41.7698 56.8902 41.812 56.4682 41.9974C56.0463 42.1828 55.7012 42.496 55.5088 42.8683C55.3165 43.2405 55.2926 43.6413 55.4424 43.9823C55.5923 44.3234 55.9036 44.5769 56.3079 44.687C56.7122 44.7971 57.1763 44.7548 57.5982 44.5695ZM60.7198 17.1158C61.1417 16.9304 61.4868 16.6171 61.6792 16.2449C61.8715 15.8726 61.8954 15.4719 61.7456 15.1308C61.5957 14.7897 61.2844 14.5363 60.8801 14.4262C60.4758 14.3161 60.0117 14.3583 59.5898 14.5437C59.1678 14.7291 58.8227 15.0423 58.6304 15.4146C58.438 15.7868 58.4141 16.1876 58.5639 16.5286C58.7138 16.8697 59.0251 17.1232 59.4294 17.2333C59.8337 17.3434 60.2978 17.3011 60.7198 17.1158ZM70.0563 3.8083C69.6344 3.99366 69.2893 4.30693 69.0969 4.67917C68.9045 5.05142 68.8806 5.45216 69.0305 5.79324C69.1803 6.13431 69.4917 6.38778 69.896 6.49789C70.3002 6.60799 70.7644 6.56571 71.1863 6.38035C71.813 6.105 72.4775 5.93214 73.1417 5.87164C73.8059 5.81113 74.4569 5.86418 75.0574 6.02773C75.658 6.19128 76.1964 6.46215 76.6419 6.82486C77.0873 7.18757 77.4312 7.63502 77.6538 8.14167C77.8764 8.64832 77.9734 9.20425 77.9392 9.7777C77.905 10.3512 77.7403 10.9309 77.4545 11.4839C77.1687 12.0368 76.7675 12.5521 76.2737 13.0004C75.7798 13.4487 75.2031 13.8211 74.5763 14.0965C74.1544 14.2818 73.8093 14.5951 73.6169 14.9674C73.4246 15.3396 73.4007 15.7403 73.5505 16.0814C73.7004 16.4225 74.0117 16.676 74.416 16.7861C74.8203 16.8962 75.2844 16.8539 75.7063 16.6685C77.8159 15.7417 79.5414 14.1754 80.5033 12.3142C81.4652 10.4529 81.5847 8.44922 80.8354 6.74385C80.0862 5.03847 78.5296 3.77113 76.5081 3.2206C74.4867 2.67008 72.1659 2.88148 70.0563 3.8083ZM19.15 26.1735C19.5719 25.9882 20.0361 25.9459 20.4404 26.056C20.8447 26.1661 21.156 26.4196 21.3059 26.7607C21.4557 27.1017 21.4318 27.5025 21.2394 27.8747C21.0471 28.247 20.702 28.5602 20.28 28.7456C19.6533 29.0209 19.0766 29.3934 18.5827 29.8417C18.0889 30.2899 17.6876 30.8053 17.4019 31.3582C17.1161 31.9112 16.9514 32.4909 16.9172 33.0644C16.883 33.6378 16.98 34.1938 17.2026 34.7004C17.4252 35.2071 17.769 35.6545 18.2145 36.0172C18.66 36.3799 19.1984 36.6508 19.799 36.8143C20.3995 36.9779 21.0505 37.0309 21.7147 36.9704C22.3789 36.9099 23.0433 36.7371 23.6701 36.4617C24.092 36.2764 24.5561 36.2341 24.9604 36.3442C25.3647 36.4543 25.676 36.7078 25.8259 37.0488C25.9757 37.3899 25.9518 37.7907 25.7595 38.1629C25.5671 38.5352 25.222 38.8484 24.8001 39.0338C22.6905 39.9606 20.3697 40.172 18.3482 39.6215C16.3268 39.071 14.7702 37.8036 14.0209 36.0982C13.2717 34.3929 13.3912 32.3892 14.3531 30.5279C15.3149 28.6667 17.0405 27.1004 19.15 26.1735ZM60.303 -1.11218C60.7249 -1.29755 61.07 -1.61081 61.2624 -1.98306C61.4548 -2.3553 61.4787 -2.75604 61.3288 -3.09712C61.179 -3.43819 60.8677 -3.69166 60.4634 -3.80177C60.0591 -3.91187 59.5949 -3.86959 59.173 -3.68423C58.7511 -3.49886 58.406 -3.1856 58.2136 -2.81335C58.0212 -2.4411 57.9973 -2.04037 58.1472 -1.69929C58.297 -1.35822 58.6083 -1.10475 59.0126 -0.994642C59.4169 -0.884539 59.8811 -0.926818 60.303 -1.11218ZM73.8631 29.7524C74.285 29.567 74.6301 29.2537 74.8225 28.8815C75.0149 28.5093 75.0388 28.1085 74.8889 27.7674C74.7391 27.4264 74.4277 27.1729 74.0234 27.0628C73.6192 26.9527 73.155 26.995 72.7331 27.1803C72.3112 27.3657 71.9661 27.6789 71.7737 28.0512C71.5813 28.4234 71.5574 28.8242 71.7073 29.1653C71.8571 29.5063 72.1684 29.7598 72.5727 29.8699C72.977 29.98 73.4412 29.9377 73.8631 29.7524ZM35.6834 46.5263C36.1053 46.3409 36.4504 46.0277 36.6428 45.6554C36.8352 45.2832 36.859 44.8824 36.7092 44.5414C36.5593 44.2003 36.248 43.9468 35.8437 43.8367C35.4394 43.7266 34.9753 43.7689 34.5534 43.9543C34.1315 44.1396 33.7864 44.4529 33.594 44.8251C33.4016 45.1974 33.3777 45.5981 33.5276 45.9392C33.6774 46.2803 33.9887 46.5337 34.393 46.6438C34.7973 46.754 35.2615 46.7117 35.6834 46.5263ZM22.1233 15.6618C22.5452 15.4764 22.8903 15.1631 23.0827 14.7909C23.2751 14.4186 23.299 14.0179 23.1491 13.6768C22.9993 13.3357 22.6879 13.0823 22.2837 12.9722C21.8794 12.8621 21.4152 12.9043 20.9933 13.0897C20.5714 13.2751 20.2263 13.5883 20.0339 13.9606C19.8415 14.3328 19.8176 14.7336 19.9675 15.0746C20.1173 15.4157 20.4286 15.6692 20.8329 15.7793C21.2372 15.8894 21.7014 15.8471 22.1233 15.6618ZM50.2532 27.8512C48.1436 28.778 45.8229 28.9894 43.8014 28.4389C41.7799 27.8883 40.2233 26.621 39.4741 24.9156C38.7248 23.2102 38.8443 21.2065 39.8062 19.3453C40.7681 17.4841 42.4936 15.9177 44.6032 14.9909C46.7127 14.0641 49.0335 13.8527 51.055 14.4032C53.0765 14.9537 54.6331 16.2211 55.3823 17.9265C56.1315 19.6318 56.0121 21.6355 55.0502 23.4968C54.0883 25.358 52.3628 26.9243 50.2532 27.8512ZM49.1232 25.2791C49.7499 25.0038 50.3267 24.6313 50.8205 24.183C51.3144 23.7348 51.7156 23.2194 52.0014 22.6665C52.2872 22.1135 52.4518 21.5338 52.486 20.9603C52.5202 20.3869 52.4232 19.8309 52.2007 19.3243C51.9781 18.8176 51.6342 18.3702 51.1887 18.0075C50.7432 17.6448 50.2048 17.3739 49.6043 17.2104C49.0037 17.0468 48.3527 16.9938 47.6885 17.0543C47.0243 17.1148 46.3599 17.2876 45.7332 17.563C44.4674 18.1191 43.4321 19.0588 42.855 20.1756C42.2779 21.2923 42.2062 22.4946 42.6557 23.5178C43.1053 24.541 44.0392 25.3014 45.2521 25.6317C46.465 25.962 47.8575 25.8352 49.1232 25.2791ZM67.5879 -10.4498C66.9612 -10.1744 66.2967 -10.0015 65.6325 -9.94105C64.9683 -9.88054 64.3174 -9.93358 63.7168 -10.0971C63.1163 -10.2607 62.5779 -10.5316 62.1324 -10.8943C61.6869 -11.257 61.343 -11.7044 61.1204 -12.2111C60.8979 -12.7177 60.8009 -13.2737 60.8351 -13.8471C60.8693 -14.4206 61.0339 -15.0003 61.3197 -15.5533C61.6055 -16.1062 62.0067 -16.6216 62.5006 -17.0698C62.9944 -17.5181 63.5712 -17.8905 64.1979 -18.1659C65.4636 -18.722 66.8561 -18.8488 68.069 -18.5185C69.2819 -18.1882 70.2158 -17.4278 70.6654 -16.4046C71.1149 -15.3813 71.0432 -14.1791 70.4661 -13.0624C69.889 -11.9456 68.8537 -11.0058 67.5879 -10.4498ZM66.4579 -13.0218C66.8798 -13.2072 67.2249 -13.5204 67.4173 -13.8927C67.6097 -14.2649 67.6336 -14.6657 67.4837 -15.0067C67.3339 -15.3478 67.0226 -15.6013 66.6183 -15.7114C66.214 -15.8215 65.7498 -15.7792 65.3279 -15.5938C64.906 -15.4085 64.5609 -15.0952 64.3685 -14.723C64.1761 -14.3507 64.1522 -13.95 64.3021 -13.6089C64.4519 -13.2678 64.7633 -13.0144 65.1675 -12.9043C65.5718 -12.7942 66.036 -12.8364 66.4579 -13.0218ZM20.3842 33.3026C20.0735 32.5953 20.5351 31.702 21.41 31.3176L27.7733 28.522C28.1952 28.3366 28.6594 28.2943 29.0637 28.4044C29.468 28.5145 29.7793 28.768 29.9292 29.1091C30.079 29.4502 30.0551 29.8509 29.8627 30.2232C29.6704 30.5954 29.3252 30.9087 28.9033 31.094L22.5401 33.8897C22.1181 34.075 21.654 34.1173 21.2497 34.0072C20.8454 33.8971 20.5341 33.6437 20.3842 33.3026ZM64.9272 13.733C64.6165 13.0257 65.0781 12.1325 65.953 11.748L72.3163 8.95239C72.7382 8.76703 73.2024 8.72475 73.6067 8.83485C74.011 8.94496 74.3223 9.19843 74.4721 9.5395C74.622 9.88058 74.5981 10.2813 74.4057 10.6536C74.2134 11.0258 73.8682 11.3391 73.4463 11.5244L67.083 14.3201C66.6611 14.5055 66.197 14.5477 65.7927 14.4376C65.3884 14.3275 65.0771 14.0741 64.9272 13.733ZM78.0705 26.3696C77.7598 25.6623 78.2214 24.7691 79.0964 24.3847L85.4597 21.589C85.8816 21.4037 86.3457 21.3614 86.75 21.4715C87.1543 21.5816 87.4656 21.8351 87.6155 22.1761C87.7653 22.5172 87.7414 22.9179 87.5491 23.2902C87.3567 23.6624 87.0116 23.9757 86.5897 24.1611L80.2264 26.9567C79.8045 27.1421 79.3403 27.1844 78.936 27.0743C78.5317 26.9642 78.2204 26.7107 78.0705 26.3696ZM21.5964 51.1811C21.2856 50.4737 21.7473 49.5805 22.6222 49.1961L28.9855 46.4005C29.4074 46.2151 29.8716 46.1728 30.2759 46.2829C30.6802 46.393 30.9915 46.6465 31.1413 46.9876C31.2912 47.3286 31.2673 47.7294 31.0749 48.1016C30.8825 48.4739 30.5374 48.7871 30.1155 48.9725L23.7522 51.7682C23.3303 51.9535 22.8661 51.9958 22.4619 51.8857C22.0576 51.7756 21.7462 51.5221 21.5964 51.1811ZM8.03631 20.3165C7.72556 19.6092 8.18718 18.716 9.06213 18.3316L15.4254 15.5359C15.8473 15.3505 16.3115 15.3083 16.7158 15.4184C17.1201 15.5285 17.4314 15.7819 17.5812 16.123C17.7311 16.4641 17.7072 16.8648 17.5148 17.2371C17.3224 17.6093 16.9773 17.9226 16.5554 18.108L10.1921 20.9036C9.77022 21.089 9.30607 21.1313 8.90177 21.0211C8.49747 20.911 8.18616 20.6576 8.03631 20.3165ZM64.5105 -4.49495C64.1997 -5.20226 64.6613 -6.09548 65.5363 -6.47988L71.8996 -9.27554C72.3215 -9.4609 72.7856 -9.50318 73.1899 -9.39308C73.5942 -9.28298 73.9055 -9.0295 74.0554 -8.68843C74.2052 -8.34735 74.1814 -7.94662 73.989 -7.57437C73.7966 -7.20212 73.4515 -6.88886 73.0296 -6.70349L66.6663 -3.90784C66.2444 -3.72247 65.7802 -3.68019 65.3759 -3.7903C64.9716 -3.9004 64.6603 -4.15387 64.5105 -4.49495ZM87.928 35.8471C86.6623 36.4032 85.2698 36.53 84.0569 36.1997C82.8441 35.8694 81.9101 35.109 81.4606 34.0857C81.011 33.0625 81.0827 31.8603 81.6598 30.7436C82.237 29.6268 83.2723 28.687 84.538 28.1309C85.8038 27.5748 87.1962 27.448 88.4091 27.7783C89.622 28.1086 90.5559 28.869 91.0055 29.8923C91.455 30.9155 91.3834 32.1177 90.8062 33.2344C90.2291 34.3512 89.1938 35.291 87.928 35.8471ZM86.798 33.275C87.2199 33.0897 87.5651 32.7764 87.7574 32.4042C87.9498 32.0319 87.9737 31.6312 87.8239 31.2901C87.674 30.949 87.3627 30.6955 86.9584 30.5854C86.5541 30.4753 86.0899 30.5176 85.668 30.703C85.2461 30.8883 84.901 31.2016 84.7086 31.5739C84.5163 31.9461 84.4924 32.3468 84.6422 32.6879C84.7921 33.029 85.1034 33.2825 85.5077 33.3926C85.912 33.5027 86.3761 33.4604 86.798 33.275ZM30.6585 61.008C29.3927 61.5641 28.0003 61.6909 26.7874 61.3606C25.5745 61.0303 24.6405 60.2699 24.191 59.2466C23.7415 58.2234 23.8131 57.0212 24.3903 55.9045C24.9674 54.7877 26.0027 53.8479 27.2685 53.2918C28.5342 52.7357 29.9267 52.6089 31.1396 52.9392C32.3524 53.2695 33.2864 54.0299 33.7359 55.0532C34.1855 56.0764 34.1138 57.2786 33.5367 58.3954C32.9595 59.5121 31.9242 60.4519 30.6585 61.008ZM29.5285 58.4359C29.9504 58.2506 30.2955 57.9373 30.4879 57.5651C30.6802 57.1928 30.7041 56.7921 30.5543 56.451C30.4044 56.1099 30.0931 55.8564 29.6888 55.7463C29.2845 55.6362 28.8204 55.6785 28.3985 55.8639C27.9766 56.0492 27.6314 56.3625 27.4391 56.7348C27.2467 57.107 27.2228 57.5077 27.3726 57.8488C27.5225 58.1899 27.8338 58.4434 28.2381 58.5535C28.6424 58.6636 29.1066 58.6213 29.5285 58.4359ZM10.3184 14.7111C9.69163 14.9865 9.02719 15.1594 8.36299 15.2199C7.69878 15.2804 7.04782 15.2273 6.44726 15.0638C5.8467 14.9002 5.3083 14.6293 4.86282 14.2666C4.41733 13.9039 4.07347 13.4565 3.85088 12.9498C3.62829 12.4432 3.53132 11.8872 3.56551 11.3138C3.5997 10.7403 3.76438 10.1606 4.05015 9.60763C4.33592 9.05467 4.73718 8.53935 5.23102 8.09107C5.72486 7.6428 6.30161 7.27035 6.92833 6.99501C8.19407 6.43892 9.58655 6.31207 10.7994 6.64239C12.0123 6.9727 12.9463 7.73311 13.3958 8.75633C13.8454 9.77956 13.7737 10.9818 13.1965 12.0985C12.6194 13.2153 11.5841 14.1551 10.3184 14.7111ZM9.18835 12.1391C9.61026 11.9537 9.95536 11.6405 10.1477 11.2682C10.3401 10.896 10.364 10.4952 10.2142 10.1542C10.0643 9.81309 9.753 9.55962 9.34871 9.44951C8.94441 9.33941 8.48025 9.38169 8.05834 9.56705C7.63643 9.75242 7.29132 10.0657 7.09895 10.4379C6.90657 10.8102 6.88268 11.2109 7.03252 11.552C7.18237 11.8931 7.49369 12.1465 7.89798 12.2566C8.30228 12.3667 8.76644 12.3245 9.18835 12.1391ZM47.9932 22.7071C48.4151 22.5217 48.7602 22.2084 48.9526 21.8362C49.145 21.4639 49.1689 21.0632 49.019 20.7221C48.8692 20.3811 48.5578 20.1276 48.1536 20.0175C47.7493 19.9074 47.2851 19.9497 46.8632 20.135C46.4413 20.3204 46.0962 20.6336 45.9038 21.0059C45.7114 21.3781 45.6875 21.7789 45.8374 22.12C45.9872 22.461 46.2985 22.7145 46.7028 22.8246C47.1071 22.9347 47.5713 22.8924 47.9932 22.7071Z" fill="#3F3641" fill-opacity="0.05"/>
</g>
<g clip-path="url(#clip1)">
<path fill-rule="evenodd" clip-rule="evenodd" d="M56.5701 73.7189C56.7547 73.3616 56.7913 72.9696 56.6359 72.616L48.723 54.6052L45.5414 56.003L52.8864 72.7213L32.2058 81.8072L33.3358 84.3793L55.6073 74.5945C56.0447 74.4023 56.3803 74.0861 56.5649 73.7288L56.5729 73.7253L56.5701 73.7189ZM64.8135 92.482C65.2015 92.5876 65.5178 92.8323 65.6703 93.1795L73.5832 111.19L70.4015 112.588L63.0565 95.8698L42.3758 104.956L41.2458 102.384L63.5173 92.5988C63.9627 92.4031 64.4146 92.3733 64.8027 92.479L64.8135 92.482ZM88.0076 82.2918C87.823 82.6491 87.7864 83.041 87.9418 83.3947L95.8547 101.405L99.0363 100.008L91.6913 83.2893L112.372 74.2034L111.242 71.6314L88.9705 81.4162C88.533 81.6084 88.1974 81.9246 88.0128 82.2819L88.0048 82.2854L88.0076 82.2918ZM81.5212 60.1409L74.1762 43.4226L70.9945 44.8204L78.9046 62.8247C79.06 63.1784 79.3762 63.423 79.7642 63.5287C80.1631 63.6373 80.615 63.6076 81.0525 63.4154L103.332 53.6271L102.202 51.055L81.5212 60.1409ZM49.3482 81.9471C49.0374 81.2398 49.499 80.3466 50.374 79.9622L58.3281 76.4676C58.75 76.2822 59.2142 76.24 59.6185 76.3501C60.0228 76.4602 60.3341 76.7136 60.4839 77.0547C60.6338 77.3958 60.6099 77.7965 60.4175 78.1688C60.2251 78.541 59.88 78.8543 59.4581 79.0397L51.504 82.5342C51.0821 82.7196 50.6179 82.7619 50.2136 82.6518C49.8093 82.5417 49.498 82.2882 49.3482 81.9471ZM53.8682 92.2353C53.5574 91.528 54.0191 90.6348 54.894 90.2504L62.8481 86.7558C63.27 86.5704 63.7342 86.5282 64.1385 86.6383C64.5428 86.7484 64.8541 87.0018 65.0039 87.3429C65.1538 87.684 65.1299 88.0847 64.9375 88.457C64.7451 88.8292 64.4 89.1425 63.9781 89.3278L56.024 92.8224C55.6021 93.0078 55.138 93.0501 54.7337 92.94C54.3294 92.8298 54.018 92.5764 53.8682 92.2353ZM59.2497 69.9257C59.0999 69.5846 59.1238 69.1839 59.3161 68.8116C59.5085 68.4394 59.8536 68.1261 60.2755 67.9408C60.6975 67.7554 61.1616 67.7131 61.5659 67.8232C61.9702 67.9333 62.2815 68.1868 62.4314 68.5279L63.5614 71.0999C63.7112 71.441 63.6873 71.8417 63.495 72.214C63.3026 72.5862 62.9575 72.8995 62.5356 73.0848C62.1136 73.2702 61.6495 73.3125 61.2452 73.2024C60.8409 73.0923 60.5296 72.8388 60.3797 72.4977L59.2497 69.9257ZM71.9763 64.3344C71.8264 63.9933 71.8503 63.5926 72.0427 63.2203C72.2351 62.8481 72.5802 62.5348 73.0021 62.3494C73.424 62.1641 73.8882 62.1218 74.2925 62.2319C74.6968 62.342 75.0081 62.5955 75.1579 62.9366L76.2879 65.5086C76.4378 65.8497 76.4139 66.2504 76.2215 66.6227C76.0291 66.9949 75.684 67.3082 75.2621 67.4935C74.8402 67.6789 74.3761 67.7212 73.9718 67.6111C73.5675 67.501 73.2561 67.2475 73.1063 66.9064L71.9763 64.3344ZM68.2898 90.5021C68.1399 90.161 68.1638 89.7602 68.3562 89.388C68.5486 89.0158 68.8937 88.7025 69.3156 88.5171C69.7375 88.3318 70.2017 88.2895 70.606 88.3996C71.0103 88.5097 71.3216 88.7632 71.4714 89.1042L72.6014 91.6763C72.7513 92.0174 72.7274 92.4181 72.535 92.7903C72.3426 93.1626 71.9975 93.4759 71.5756 93.6612C71.1537 93.8466 70.6895 93.8889 70.2852 93.7788C69.8809 93.6687 69.5696 93.4152 69.4198 93.0741L68.2898 90.5021ZM81.0163 84.9107C80.8665 84.5697 80.8904 84.1689 81.0828 83.7967C81.2751 83.4244 81.6203 83.1112 82.0422 82.9258C82.4641 82.7404 82.9282 82.6982 83.3325 82.8083C83.7368 82.9184 84.0481 83.1718 84.198 83.5129L85.328 86.085C85.4778 86.426 85.454 86.8268 85.2616 87.199C85.0692 87.5713 84.7241 87.8845 84.3022 88.0699C83.8803 88.2553 83.4161 88.2975 83.0118 88.1874C82.6075 88.0773 82.2962 87.8239 82.1464 87.4828L81.0163 84.9107ZM73.9398 103.362C73.79 103.021 73.8139 102.62 74.0062 102.248C74.1986 101.876 74.5437 101.563 74.9656 101.377C75.3875 101.192 75.8517 101.15 76.256 101.26C76.6603 101.37 76.9716 101.623 77.1215 101.964L78.8165 105.823C78.9663 106.164 78.9424 106.564 78.75 106.937C78.5577 107.309 78.2126 107.622 77.7906 107.807C77.3687 107.993 76.9046 108.035 76.5003 107.925C76.096 107.815 75.7847 107.561 75.6348 107.22L73.9398 103.362ZM86.6664 97.771C86.5165 97.4299 86.5404 97.0292 86.7328 96.6569C86.9252 96.2847 87.2703 95.9714 87.6922 95.786C88.1141 95.6007 88.5783 95.5584 88.9826 95.6685C89.3869 95.7786 89.6982 96.0321 89.848 96.3732L91.543 100.231C91.6929 100.572 91.669 100.973 91.4766 101.345C91.2842 101.718 90.9391 102.031 90.5172 102.216C90.0953 102.402 89.6311 102.444 89.2269 102.334C88.8226 102.224 88.5112 101.97 88.3614 101.629L86.6664 97.771ZM53.0347 55.7794C52.8848 55.4384 52.9087 55.0376 53.1011 54.6654C53.2935 54.2931 53.6386 53.9799 54.0605 53.7945C54.4824 53.6091 54.9466 53.5669 55.3509 53.677C55.7552 53.7871 56.0665 54.0405 56.2163 54.3816L57.9113 58.2397C58.0612 58.5808 58.0373 58.9815 57.8449 59.3537C57.6525 59.726 57.3074 60.0393 56.8855 60.2246C56.4636 60.41 55.9994 60.4523 55.5952 60.3422C55.1909 60.2321 54.8795 59.9786 54.7297 59.6375L53.0347 55.7794ZM65.7613 50.1881C65.6114 49.8471 65.6353 49.4463 65.8277 49.0741C66.0201 48.7018 66.3652 48.3886 66.7871 48.2032C67.209 48.0178 67.6731 47.9755 68.0774 48.0856C68.4817 48.1958 68.793 48.4492 68.9429 48.7903L70.6379 52.6484C70.7878 52.9894 70.7639 53.3902 70.5715 53.7624C70.3791 54.1347 70.034 54.4479 69.6121 54.6333C69.1902 54.8187 68.726 54.8609 68.3217 54.7508C67.9174 54.6407 67.6061 54.3873 67.4563 54.0462L65.7613 50.1881ZM82.5631 105.711C82.4133 105.37 82.4372 104.969 82.6295 104.597C82.8219 104.224 83.167 103.911 83.5889 103.726C84.0108 103.54 84.475 103.498 84.8793 103.608C85.2836 103.718 85.5949 103.972 85.7448 104.313L86.3098 105.599L83.1281 106.997L82.5631 105.711ZM63.353 61.9859C63.2031 61.6449 63.227 61.2441 63.4194 60.8719C63.6118 60.4996 63.9569 60.1864 64.3788 60.001C64.8007 59.8156 65.2649 59.7734 65.6692 59.8835C66.0735 59.9936 66.3848 60.247 66.5346 60.5881L69.3597 67.0182C69.5095 67.3593 69.4856 67.76 69.2932 68.1323C69.1009 68.5045 68.7557 68.8178 68.3338 69.0032C67.9119 69.1885 67.4478 69.2308 67.0435 69.1207C66.6392 69.0106 66.3279 68.7571 66.178 68.4161L63.353 61.9859ZM78.4878 44.5968C78.338 44.2557 78.3619 43.855 78.5542 43.4828C78.7466 43.1105 79.0917 42.7972 79.5136 42.6119C79.9356 42.4265 80.3997 42.3842 80.804 42.4943C81.2083 42.6044 81.5196 42.8579 81.6695 43.199L83.9295 48.3431C84.0793 48.6842 84.0554 49.0849 83.8631 49.4571C83.6707 49.8294 83.3256 50.1427 82.9037 50.328C82.4818 50.5134 82.0176 50.5557 81.6133 50.4456C81.209 50.3355 80.8977 50.082 80.7478 49.7409L78.4878 44.5968ZM98.8279 90.8936C98.6781 90.5526 98.702 90.1518 98.8944 89.7796C99.0867 89.4073 99.4319 89.0941 99.8538 88.9087C100.276 88.7233 100.74 88.6811 101.144 88.7912C101.548 88.9013 101.86 89.1547 102.01 89.4958L104.27 94.6399C104.419 94.981 104.396 95.3817 104.203 95.754C104.011 96.1262 103.666 96.4395 103.244 96.6248C102.822 96.8102 102.358 96.8525 101.953 96.7424C101.549 96.6323 101.238 96.3788 101.088 96.0377L98.8279 90.8936ZM60.6482 107.668C60.4984 107.327 60.5223 106.926 60.7147 106.554C60.907 106.181 61.2521 105.868 61.6741 105.683C62.096 105.497 62.5601 105.455 62.9644 105.565C63.3687 105.675 63.68 105.929 63.8299 106.27L66.0899 111.414C66.2397 111.755 66.2158 112.156 66.0235 112.528C65.8311 112.9 65.486 113.213 65.0641 113.399C64.6422 113.584 64.178 113.626 63.7737 113.516C63.3694 113.406 63.0581 113.153 62.9083 112.812L60.6482 107.668ZM40.3081 61.3707C40.1583 61.0297 40.1822 60.6289 40.3745 60.2567C40.5669 59.8844 40.912 59.5712 41.3339 59.3858C41.7558 59.2004 42.22 59.1582 42.6243 59.2683C43.0286 59.3784 43.3399 59.6318 43.4898 59.9729L45.7498 65.117C45.8996 65.4581 45.8757 65.8588 45.6833 66.2311C45.491 66.6033 45.1459 66.9166 44.724 67.102C44.302 67.2873 43.8379 67.3296 43.4336 67.2195C43.0293 67.1094 42.718 66.8559 42.5681 66.5148L40.3081 61.3707ZM58.268 50.4117L61.4496 49.0139L62.0146 50.2999C62.1645 50.641 62.1406 51.0417 61.9482 51.414C61.7558 51.7862 61.4107 52.0995 60.9888 52.2849C60.5669 52.4702 60.1027 52.5125 59.6984 52.4024C59.2941 52.2923 58.9828 52.0388 58.833 51.6978L58.268 50.4117ZM75.2181 88.9924C75.0682 88.6514 75.0921 88.2506 75.2845 87.8784C75.4769 87.5061 75.822 87.1929 76.2439 87.0075C76.6658 86.8221 77.13 86.7798 77.5343 86.89C77.9385 87.0001 78.2499 87.2535 78.3997 87.5946L81.2247 94.0247C81.3746 94.3658 81.3507 94.7665 81.1583 95.1388C80.9659 95.511 80.6208 95.8243 80.1989 96.0097C79.777 96.195 79.3128 96.2373 78.9085 96.1272C78.5042 96.0171 78.1929 95.7636 78.0431 95.4225L75.2181 88.9924ZM79.5738 68.6678C79.263 67.9604 79.7246 67.0672 80.5996 66.6828L88.5537 63.1882C88.9756 63.0029 89.4398 62.9606 89.8441 63.0707C90.2484 63.1808 90.5597 63.4343 90.7095 63.7754C90.8594 64.1164 90.8355 64.5172 90.6431 64.8894C90.4507 65.2617 90.1056 65.5749 89.6837 65.7603L81.7296 69.2549C81.3077 69.4402 80.8435 69.4825 80.4392 69.3724C80.0349 69.2623 79.7236 69.0088 79.5738 68.6678ZM84.0938 78.9559C83.783 78.2486 84.2447 77.3554 85.1196 76.971L93.0737 73.4764C93.4956 73.2911 93.9598 73.2488 94.3641 73.3589C94.7684 73.469 95.0797 73.7225 95.2295 74.0635C95.3794 74.4046 95.3555 74.8054 95.1631 75.1776C94.9708 75.5499 94.6256 75.8631 94.2037 76.0485L86.2496 79.543C85.8277 79.7284 85.3636 79.7707 84.9593 79.6606C84.555 79.5505 84.2437 79.297 84.0938 78.9559ZM60.1273 84.8827C60.5492 84.6973 60.8943 84.384 61.0867 84.0118C61.2791 83.6395 61.303 83.2388 61.1531 82.8977C61.0033 82.5567 60.6919 82.3032 60.2877 82.1931C59.8834 82.083 59.4192 82.1253 58.9973 82.3106C58.5754 82.496 58.2303 82.8092 58.0379 83.1815C57.8455 83.5537 57.8216 83.9545 57.9715 84.2956C58.1213 84.6366 58.4326 84.8901 58.8369 85.0002C59.2412 85.1103 59.7054 85.068 60.1273 84.8827ZM73.8356 98.8053C74.2575 98.6199 74.6026 98.3067 74.795 97.9344C74.9874 97.5622 75.0113 97.1614 74.8614 96.8204C74.7116 96.4793 74.4003 96.2258 73.996 96.1157C73.5917 96.0056 73.1275 96.0479 72.7056 96.2333C72.2837 96.4186 71.9386 96.7319 71.7462 97.1041C71.5538 97.4764 71.53 97.8771 71.6798 98.2182C71.8296 98.5593 72.141 98.8127 72.5453 98.9228C72.9496 99.033 73.4137 98.9907 73.8356 98.8053ZM86.5622 93.214C86.9841 93.0286 87.3292 92.7154 87.5216 92.3431C87.714 91.9709 87.7379 91.5701 87.588 91.2291C87.4382 90.888 87.1269 90.6345 86.7226 90.5244C86.3183 90.4143 85.8541 90.4566 85.4322 90.6419C85.0103 90.8273 84.6652 91.1406 84.4728 91.5128C84.2804 91.8851 84.2565 92.2858 84.4064 92.6269C84.5562 92.968 84.8675 93.2214 85.2718 93.3315C85.6761 93.4416 86.1403 93.3994 86.5622 93.214ZM59.1455 65.3687C59.5674 65.1833 59.9126 64.8701 60.1049 64.4978C60.2973 64.1256 60.3212 63.7248 60.1714 63.3838C60.0215 63.0427 59.7102 62.7892 59.3059 62.6791C58.9016 62.569 58.4374 62.6113 58.0155 62.7967C57.5936 62.982 57.2485 63.2953 57.0561 63.6675C56.8638 64.0398 56.8399 64.4405 56.9897 64.7816C57.1396 65.1227 57.4509 65.3761 57.8552 65.4862C58.2595 65.5964 58.7236 65.5541 59.1455 65.3687ZM71.8721 59.7774C72.294 59.592 72.6391 59.2788 72.8315 58.9065C73.0239 58.5343 73.0478 58.1335 72.8979 57.7925C72.7481 57.4514 72.4368 57.1979 72.0325 57.0878C71.6282 56.9777 71.164 57.02 70.7421 57.2054C70.3202 57.3907 69.9751 57.704 69.7827 58.0762C69.5903 58.4485 69.5664 58.8492 69.7163 59.1903C69.8661 59.5314 70.1774 59.7848 70.5817 59.8949C70.986 60.005 71.4502 59.9628 71.8721 59.7774ZM63.2488 57.429C63.6707 57.2436 64.0158 56.9303 64.2082 56.5581C64.4006 56.1858 64.4245 55.7851 64.2746 55.444C64.1248 55.1029 63.8135 54.8495 63.4092 54.7394C63.0049 54.6293 62.5407 54.6716 62.1188 54.8569C61.6969 55.0423 61.3518 55.3555 61.1594 55.7278C60.967 56.1 60.9431 56.5008 61.093 56.8419C61.2428 57.1829 61.5541 57.4364 61.9584 57.5465C62.3627 57.6566 62.8269 57.6143 63.2488 57.429ZM82.4589 101.154C82.8808 100.968 83.2259 100.655 83.4183 100.283C83.6107 99.9106 83.6346 99.5099 83.4847 99.1688C83.3349 98.8277 83.0236 98.5743 82.6193 98.4642C82.215 98.3541 81.7508 98.3963 81.3289 98.5817C80.907 98.7671 80.5619 99.0803 80.3695 99.4526C80.1771 99.8248 80.1532 100.226 80.3031 100.567C80.4529 100.908 80.7643 101.161 81.1686 101.271C81.5729 101.381 82.037 101.339 82.4589 101.154ZM85.5804 73.7C86.0023 73.5147 86.3475 73.2014 86.5398 72.8292C86.7322 72.4569 86.7561 72.0562 86.6063 71.7151C86.4564 71.374 86.1451 71.1206 85.7408 71.0105C85.3365 70.9004 84.8723 70.9426 84.4504 71.128C84.0285 71.3134 83.6834 71.6266 83.491 71.9989C83.2987 72.3711 83.2748 72.7719 83.4246 73.1129C83.5745 73.454 83.8858 73.7075 84.2901 73.8176C84.6944 73.9277 85.1585 73.8854 85.5804 73.7ZM94.917 60.3926C94.4951 60.578 94.15 60.8912 93.9576 61.2635C93.7652 61.6357 93.7413 62.0365 93.8912 62.3775C94.041 62.7186 94.3523 62.9721 94.7566 63.0822C95.1609 63.1923 95.6251 63.15 96.047 62.9646C96.6737 62.6893 97.3382 62.5164 98.0024 62.4559C98.6666 62.3954 99.3175 62.4485 99.9181 62.612C100.519 62.7756 101.057 63.0464 101.503 63.4092C101.948 63.7719 102.292 64.2193 102.514 64.726C102.737 65.2326 102.834 65.7885 102.8 66.362C102.766 66.9354 102.601 67.5152 102.315 68.0682C102.029 68.6211 101.628 69.1364 101.134 69.5847C100.64 70.033 100.064 70.4054 99.437 70.6808C99.0151 70.8661 98.67 71.1794 98.4776 71.5516C98.2852 71.9239 98.2613 72.3246 98.4112 72.6657C98.561 73.0068 98.8724 73.2603 99.2767 73.3704C99.6809 73.4805 100.145 73.4382 100.567 73.2528C102.677 72.326 104.402 70.7597 105.364 68.8984C106.326 67.0372 106.445 65.0335 105.696 63.3281C104.947 61.6228 103.39 60.3554 101.369 59.8049C99.3473 59.2544 97.0265 59.4658 94.917 60.3926ZM44.0107 82.7578C44.4326 82.5725 44.8968 82.5302 45.3011 82.6403C45.7054 82.7504 46.0167 83.0039 46.1665 83.3449C46.3164 83.686 46.2925 84.0868 46.1001 84.459C45.9077 84.8313 45.5626 85.1445 45.1407 85.3299C44.514 85.6052 43.9372 85.9777 43.4434 86.4259C42.9496 86.8742 42.5483 87.3895 42.2625 87.9425C41.9768 88.4955 41.8121 89.0752 41.7779 89.6487C41.7437 90.2221 41.8407 90.778 42.0633 91.2847C42.2858 91.7913 42.6297 92.2388 43.0752 92.6015C43.5207 92.9642 44.0591 93.2351 44.6596 93.3986C45.2602 93.5622 45.9112 93.6152 46.5754 93.5547C47.2396 93.4942 47.904 93.3214 48.5307 93.046C48.9526 92.8607 49.4168 92.8184 49.8211 92.9285C50.2254 93.0386 50.5367 93.2921 50.6866 93.6331C50.8364 93.9742 50.8125 94.3749 50.6201 94.7472C50.4278 95.1194 50.0826 95.4327 49.6607 95.6181C47.5512 96.5449 45.2304 96.7563 43.2089 96.2058C41.1874 95.6552 39.6309 94.3879 38.8816 92.6825C38.1324 90.9771 38.2518 88.9734 39.2137 87.1122C40.1756 85.251 41.9011 83.6847 44.0107 82.7578ZM85.1637 55.4721C85.5856 55.2867 85.9307 54.9735 86.1231 54.6012C86.3155 54.229 86.3393 53.8282 86.1895 53.4872C86.0396 53.1461 85.7283 52.8926 85.324 52.7825C84.9197 52.6724 84.4556 52.7147 84.0337 52.9001C83.6118 53.0854 83.2667 53.3987 83.0743 53.7709C82.8819 54.1432 82.858 54.5439 83.0079 54.885C83.1577 55.2261 83.469 55.4795 83.8733 55.5896C84.2776 55.6998 84.7418 55.6575 85.1637 55.4721ZM98.7238 86.3367C99.1457 86.1513 99.4908 85.838 99.6832 85.4658C99.8755 85.0935 99.8994 84.6928 99.7496 84.3517C99.5997 84.0107 99.2884 83.7572 98.8841 83.6471C98.4798 83.537 98.0157 83.5793 97.5938 83.7646C97.1718 83.95 96.8267 84.2632 96.6344 84.6355C96.442 85.0077 96.4181 85.4085 96.5679 85.7496C96.7178 86.0906 97.0291 86.3441 97.4334 86.4542C97.8377 86.5643 98.3018 86.522 98.7238 86.3367ZM60.544 103.111C60.966 102.925 61.3111 102.612 61.5034 102.24C61.6958 101.867 61.7197 101.467 61.5699 101.126C61.42 100.785 61.1087 100.531 60.7044 100.421C60.3001 100.311 59.836 100.353 59.414 100.539C58.9921 100.724 58.647 101.037 58.4546 101.409C58.2623 101.782 58.2384 102.182 58.3882 102.523C58.5381 102.865 58.8494 103.118 59.2537 103.228C59.658 103.338 60.1221 103.296 60.544 103.111ZM46.984 72.246C47.4059 72.0607 47.751 71.7474 47.9434 71.3752C48.1357 71.0029 48.1596 70.6022 48.0098 70.2611C47.8599 69.92 47.5486 69.6666 47.1443 69.5565C46.74 69.4464 46.2759 69.4886 45.854 69.674C45.432 69.8594 45.0869 70.1726 44.8946 70.5449C44.7022 70.9171 44.6783 71.3179 44.8281 71.6589C44.978 72 45.2893 72.2535 45.6936 72.3636C46.0979 72.4737 46.5621 72.4314 46.984 72.246ZM75.1139 84.4354C73.0043 85.3623 70.6835 85.5737 68.662 85.0231C66.6406 84.4726 65.084 83.2053 64.3348 81.4999C63.5855 79.7945 63.705 77.7908 64.6669 75.9296C65.6288 74.0683 67.3543 72.502 69.4638 71.5752C71.5734 70.6484 73.8942 70.437 75.9157 70.9875C77.9372 71.538 79.4937 72.8054 80.243 74.5108C80.9922 76.2161 80.8727 78.2198 79.9109 80.0811C78.949 81.9423 77.2234 83.5086 75.1139 84.4354ZM73.9839 81.8634C74.6106 81.588 75.1873 81.2156 75.6812 80.7673C76.175 80.3191 76.5763 79.8037 76.8621 79.2508C77.1478 78.6978 77.3125 78.1181 77.3467 77.5446C77.3809 76.9712 77.2839 76.4152 77.0613 75.9086C76.8387 75.4019 76.4949 74.9545 76.0494 74.5918C75.6039 74.2291 75.0655 73.9582 74.4649 73.7946C73.8644 73.6311 73.2134 73.578 72.5492 73.6385C71.885 73.6991 71.2206 73.8719 70.5939 74.1473C69.3281 74.7033 68.2928 75.6431 67.7157 76.7599C67.1385 77.8766 67.0669 79.0788 67.5164 80.1021C67.9659 81.1253 68.8999 81.8857 70.1128 82.216C71.3257 82.5463 72.7181 82.4195 73.9839 81.8634ZM92.4486 46.1345C91.8219 46.4099 91.1574 46.5827 90.4932 46.6432C89.829 46.7037 89.1781 46.6507 88.5775 46.4871C87.9769 46.3236 87.4385 46.0527 86.9931 45.69C86.5476 45.3273 86.2037 44.8799 85.9811 44.3732C85.7585 43.8666 85.6616 43.3106 85.6957 42.7372C85.7299 42.1637 85.8946 41.584 86.1804 41.031C86.4662 40.4781 86.8674 39.9627 87.3612 39.5145C87.8551 39.0662 88.4318 38.6937 89.0586 38.4184C90.3243 37.8623 91.7168 37.7355 92.9297 38.0658C94.1426 38.3961 95.0765 39.1565 95.526 40.1797C95.9756 41.2029 95.9039 42.4052 95.3268 43.5219C94.7496 44.6387 93.7143 45.5784 92.4486 46.1345ZM91.3186 43.5625C91.7405 43.3771 92.0856 43.0639 92.278 42.6916C92.4704 42.3194 92.4943 41.9186 92.3444 41.5775C92.1946 41.2365 91.8832 40.983 91.4789 40.8729C91.0747 40.7628 90.6105 40.8051 90.1886 40.9904C89.7667 41.1758 89.4216 41.4891 89.2292 41.8613C89.0368 42.2336 89.0129 42.6343 89.1628 42.9754C89.3126 43.3165 89.6239 43.5699 90.0282 43.68C90.4325 43.7901 90.8967 43.7478 91.3186 43.5625ZM45.2449 89.8869C44.9341 89.1796 45.3958 88.2863 46.2707 87.9019L52.634 85.1063C53.0559 84.9209 53.5201 84.8786 53.9244 84.9887C54.3287 85.0988 54.64 85.3523 54.7898 85.6934C54.9397 86.0345 54.9158 86.4352 54.7234 86.8074C54.531 87.1797 54.1859 87.493 53.764 87.6783L47.4007 90.474C46.9788 90.6593 46.5147 90.7016 46.1104 90.5915C45.7061 90.4814 45.3947 90.2279 45.2449 89.8869ZM89.7879 70.3173C89.4771 69.61 89.9388 68.7167 90.8137 68.3323L97.177 65.5367C97.5989 65.3513 98.0631 65.309 98.4674 65.4191C98.8717 65.5292 99.183 65.7827 99.3328 66.1238C99.4827 66.4649 99.4588 66.8656 99.2664 67.2379C99.074 67.6101 98.7289 67.9234 98.307 68.1087L91.9437 70.9044C91.5218 71.0897 91.0576 71.132 90.6533 71.0219C90.2491 70.9118 89.9377 70.6583 89.7879 70.3173ZM102.931 82.9539C102.62 82.2466 103.082 81.3534 103.957 80.969L110.32 78.1733C110.742 77.9879 111.206 77.9457 111.611 78.0558C112.015 78.1659 112.326 78.4193 112.476 78.7604C112.626 79.1015 112.602 79.5022 112.41 79.8745C112.217 80.2467 111.872 80.56 111.45 80.7454L105.087 83.541C104.665 83.7264 104.201 83.7687 103.797 83.6585C103.392 83.5484 103.081 83.295 102.931 82.9539ZM46.4571 107.765C46.1463 107.058 46.6079 106.165 47.4829 105.78L53.8462 102.985C54.2681 102.799 54.7322 102.757 55.1365 102.867C55.5408 102.977 55.8521 103.231 56.002 103.572C56.1518 103.913 56.1279 104.314 55.9356 104.686C55.7432 105.058 55.3981 105.371 54.9762 105.557L48.6129 108.352C48.191 108.538 47.7268 108.58 47.3225 108.47C46.9182 108.36 46.6069 108.106 46.4571 107.765ZM32.897 76.9008C32.5862 76.1935 33.0478 75.3003 33.9228 74.9159L40.2861 72.1202C40.708 71.9348 41.1722 71.8926 41.5765 72.0027C41.9807 72.1128 42.2921 72.3662 42.4419 72.7073C42.5918 73.0484 42.5679 73.4491 42.3755 73.8214C42.1831 74.1936 41.838 74.5069 41.4161 74.6922L35.0528 77.4879C34.6309 77.6733 34.1667 77.7155 33.7624 77.6054C33.3581 77.4953 33.0468 77.2419 32.897 76.9008ZM89.3711 52.0893C89.0604 51.382 89.522 50.4888 90.397 50.1044L96.7602 47.3088C97.1822 47.1234 97.6463 47.0811 98.0506 47.1912C98.4549 47.3013 98.7662 47.5548 98.9161 47.8959C99.0659 48.2369 99.042 48.6377 98.8496 49.0099C98.6573 49.3822 98.3122 49.6954 97.8902 49.8808L91.527 52.6765C91.1051 52.8618 90.6409 52.9041 90.2366 52.794C89.8323 52.6839 89.521 52.4304 89.3711 52.0893ZM112.789 92.4314C111.523 92.9875 110.131 93.1143 108.918 92.784C107.705 92.4537 106.771 91.6933 106.321 90.67C105.872 89.6468 105.943 88.4446 106.521 87.3278C107.098 86.2111 108.133 85.2713 109.399 84.7152C110.664 84.1591 112.057 84.0323 113.27 84.3626C114.483 84.6929 115.417 85.4533 115.866 86.4766C116.316 87.4998 116.244 88.702 115.667 89.8187C115.09 90.9355 114.054 91.8753 112.789 92.4314ZM111.659 89.8593C112.081 89.674 112.426 89.3607 112.618 88.9884C112.81 88.6162 112.834 88.2155 112.685 87.8744C112.535 87.5333 112.223 87.2798 111.819 87.1697C111.415 87.0596 110.951 87.1019 110.529 87.2873C110.107 87.4726 109.762 87.7859 109.569 88.1581C109.377 88.5304 109.353 88.9311 109.503 89.2722C109.653 89.6133 109.964 89.8668 110.368 89.9769C110.773 90.087 111.237 90.0447 111.659 89.8593ZM55.5192 117.592C54.2534 118.148 52.8609 118.275 51.6481 117.945C50.4352 117.615 49.5012 116.854 49.0517 115.831C48.6021 114.808 48.6738 113.605 49.2509 112.489C49.8281 111.372 50.8634 110.432 52.1291 109.876C53.3949 109.32 54.7873 109.193 56.0002 109.524C57.2131 109.854 58.1471 110.614 58.5966 111.637C59.0461 112.661 58.9745 113.863 58.3973 114.98C57.8202 116.096 56.7849 117.036 55.5192 117.592ZM54.3891 115.02C54.8111 114.835 55.1562 114.522 55.3485 114.149C55.5409 113.777 55.5648 113.376 55.415 113.035C55.2651 112.694 54.9538 112.441 54.5495 112.331C54.1452 112.221 53.681 112.263 53.2591 112.448C52.8372 112.634 52.4921 112.947 52.2997 113.319C52.1074 113.691 52.0835 114.092 52.2333 114.433C52.3832 114.774 52.6945 115.028 53.0988 115.138C53.5031 115.248 53.9672 115.206 54.3891 115.02ZM35.179 71.2954C34.5523 71.5708 33.8879 71.7436 33.2237 71.8041C32.5595 71.8646 31.9085 71.8116 31.3079 71.6481C30.7074 71.4845 30.169 71.2136 29.7235 70.8509C29.278 70.4882 28.9341 70.0408 28.7116 69.5341C28.489 69.0275 28.392 68.4715 28.4262 67.8981C28.4604 67.3246 28.6251 66.7449 28.9108 66.1919C29.1966 65.639 29.5978 65.1236 30.0917 64.6754C30.5855 64.2271 31.1623 63.8546 31.789 63.5793C33.0547 63.0232 34.4472 62.8964 35.6601 63.2267C36.873 63.557 37.8069 64.3174 38.2565 65.3406C38.706 66.3638 38.6343 67.5661 38.0572 68.6828C37.4801 69.7996 36.4448 70.7393 35.179 71.2954ZM34.049 68.7234C34.4709 68.538 34.816 68.2248 35.0084 67.8525C35.2008 67.4803 35.2247 67.0795 35.0748 66.7385C34.925 66.3974 34.6137 66.1439 34.2094 66.0338C33.8051 65.9237 33.3409 65.966 32.919 66.1513C32.4971 66.3367 32.152 66.65 31.9596 67.0222C31.7672 67.3945 31.7433 67.7952 31.8932 68.1363C32.043 68.4774 32.3544 68.7308 32.7587 68.8409C33.1629 68.951 33.6271 68.9088 34.049 68.7234ZM72.8539 79.2914C73.2758 79.106 73.6209 78.7927 73.8133 78.4205C74.0056 78.0482 74.0295 77.6475 73.8797 77.3064C73.7298 76.9653 73.4185 76.7119 73.0142 76.6018C72.6099 76.4917 72.1458 76.5339 71.7239 76.7193C71.3019 76.9047 70.9568 77.2179 70.7645 77.5902C70.5721 77.9624 70.5482 78.3632 70.698 78.7042C70.8479 79.0453 71.1592 79.2988 71.5635 79.4089C71.9678 79.519 72.432 79.4767 72.8539 79.2914Z" fill="#3F3641" fill-opacity="0.05"/>
</g>
<g clip-path="url(#clip2)">
<path fill-rule="evenodd" clip-rule="evenodd" d="M101.705 -13.6175C101.89 -13.9748 101.926 -14.3667 101.771 -14.7204L93.8582 -32.7311L90.6765 -31.3333L98.0216 -14.615L77.3409 -5.52914L78.4709 -2.95709L100.742 -12.7419C101.18 -12.9341 101.515 -13.2503 101.7 -13.6076L101.708 -13.6111L101.705 -13.6175ZM109.949 5.14559C110.337 5.25126 110.653 5.49589 110.805 5.84312L118.718 23.8539L115.537 25.2517L108.192 8.5334L87.511 17.6193L86.3809 15.0472L108.652 5.26244C109.098 5.06674 109.55 5.03697 109.938 5.14265L109.949 5.14559ZM133.143 -5.04458C132.958 -4.68729 132.922 -4.29534 133.077 -3.94168L140.99 14.0691L144.171 12.6712L136.826 -4.04706L157.507 -13.1329L156.377 -15.705L134.106 -5.92019C133.668 -5.72799 133.333 -5.41179 133.148 -5.0545L133.14 -5.05101L133.143 -5.04458ZM126.656 -27.1955L119.311 -43.9138L116.13 -42.5159L124.04 -24.5116C124.195 -24.158 124.511 -23.9133 124.899 -23.8077C125.298 -23.699 125.75 -23.7288 126.188 -23.921L148.467 -33.7093L147.337 -36.2814L126.656 -27.1955ZM94.4833 -5.38925C94.1726 -6.09656 94.6342 -6.98978 95.5091 -7.37418L103.463 -10.8688C103.885 -11.0541 104.349 -11.0964 104.754 -10.9863C105.158 -10.8762 105.469 -10.6227 105.619 -10.2816C105.769 -9.94057 105.745 -9.53983 105.553 -9.16758C105.36 -8.79533 105.015 -8.48207 104.593 -8.29671L96.6391 -4.80214C96.2172 -4.61678 95.7531 -4.57449 95.3488 -4.6846C94.9445 -4.7947 94.6332 -5.04817 94.4833 -5.38925ZM99.0033 4.89894C98.6926 4.19162 99.1542 3.2984 100.029 2.914L107.983 -0.58057C108.405 -0.765934 108.869 -0.808214 109.274 -0.698111C109.678 -0.588005 109.989 -0.334533 110.139 0.0065404C110.289 0.347614 110.265 0.748357 110.073 1.1206C109.88 1.49285 109.535 1.80611 109.113 1.99148L101.159 5.48605C100.737 5.67141 100.273 5.71369 99.8688 5.60359C99.4645 5.49348 99.1532 5.24001 99.0033 4.89894ZM104.385 -17.4107C104.235 -17.7517 104.259 -18.1525 104.451 -18.5247C104.644 -18.897 104.989 -19.2102 105.411 -19.3956C105.833 -19.581 106.297 -19.6233 106.701 -19.5132C107.105 -19.403 107.417 -19.1496 107.566 -18.8085L108.697 -16.2365C108.846 -15.8954 108.822 -15.4946 108.63 -15.1224C108.438 -14.7501 108.093 -14.4369 107.671 -14.2515C107.249 -14.0662 106.785 -14.0239 106.38 -14.134C105.976 -14.2441 105.665 -14.4976 105.515 -14.8386L104.385 -17.4107ZM117.111 -23.002C116.962 -23.3431 116.985 -23.7438 117.178 -24.116C117.37 -24.4883 117.715 -24.8016 118.137 -24.9869C118.559 -25.1723 119.023 -25.2146 119.428 -25.1045C119.832 -24.9944 120.143 -24.7409 120.293 -24.3998L121.423 -21.8278C121.573 -21.4867 121.549 -21.086 121.357 -20.7137C121.164 -20.3415 120.819 -20.0282 120.397 -19.8428C119.975 -19.6575 119.511 -19.6152 119.107 -19.7253C118.703 -19.8354 118.391 -20.0889 118.241 -20.4299L117.111 -23.002ZM113.425 3.16569C113.275 2.82462 113.299 2.42388 113.491 2.05163C113.684 1.67939 114.029 1.36612 114.451 1.18076C114.873 0.995395 115.337 0.953114 115.741 1.06322C116.145 1.17332 116.457 1.42679 116.607 1.76787L117.737 4.33991C117.886 4.68099 117.863 5.08173 117.67 5.45398C117.478 5.82622 117.133 6.13949 116.711 6.32485C116.289 6.51021 115.825 6.55249 115.42 6.44239C115.016 6.33229 114.705 6.07882 114.555 5.73774L113.425 3.16569ZM126.151 -2.42562C126.002 -2.76669 126.026 -3.16743 126.218 -3.53968C126.41 -3.91193 126.755 -4.22519 127.177 -4.41055C127.599 -4.59592 128.063 -4.6382 128.468 -4.52809C128.872 -4.41799 129.183 -4.16452 129.333 -3.82345L130.463 -1.2514C130.613 -0.910323 130.589 -0.509585 130.397 -0.137334C130.204 0.234912 129.859 0.548176 129.437 0.733539C129.015 0.918902 128.551 0.961183 128.147 0.85108C127.743 0.740974 127.431 0.487506 127.281 0.146428L126.151 -2.42562ZM119.075 16.0259C118.925 15.6848 118.949 15.2841 119.141 14.9119C119.334 14.5396 119.679 14.2264 120.101 14.041C120.523 13.8556 120.987 13.8133 121.391 13.9234C121.795 14.0336 122.107 14.287 122.257 14.6281L123.952 18.4862C124.101 18.8272 124.078 19.228 123.885 19.6002C123.693 19.9725 123.348 20.2857 122.926 20.4711C122.504 20.6565 122.04 20.6987 121.635 20.5886C121.231 20.4785 120.92 20.2251 120.77 19.884L119.075 16.0259ZM131.802 10.4346C131.652 10.0935 131.676 9.6928 131.868 9.32055C132.06 8.9483 132.405 8.63504 132.827 8.44968C133.249 8.26431 133.713 8.22203 134.118 8.33214C134.522 8.44224 134.833 8.69571 134.983 9.03679L136.678 12.8949C136.828 13.2359 136.804 13.6367 136.612 14.0089C136.419 14.3812 136.074 14.6944 135.652 14.8798C135.23 15.0652 134.766 15.1074 134.362 14.9973C133.958 14.8872 133.646 14.6338 133.497 14.2927L131.802 10.4346ZM98.1698 -31.5569C98.02 -31.898 98.0439 -32.2987 98.2362 -32.671C98.4286 -33.0432 98.7737 -33.3565 99.1956 -33.5419C99.6175 -33.7272 100.082 -33.7695 100.486 -33.6594C100.89 -33.5493 101.202 -33.2958 101.351 -32.9548L103.046 -29.0967C103.196 -28.7556 103.172 -28.3549 102.98 -27.9826C102.788 -27.6104 102.443 -27.2971 102.021 -27.1117C101.599 -26.9264 101.135 -26.8841 100.73 -26.9942C100.326 -27.1043 100.015 -27.3578 99.8648 -27.6989L98.1698 -31.5569ZM110.896 -37.1482C110.747 -37.4893 110.77 -37.8901 110.963 -38.2623C111.155 -38.6345 111.5 -38.9478 111.922 -39.1332C112.344 -39.3185 112.808 -39.3608 113.213 -39.2507C113.617 -39.1406 113.928 -38.8871 114.078 -38.5461L115.773 -34.688C115.923 -34.3469 115.899 -33.9462 115.707 -33.5739C115.514 -33.2017 115.169 -32.8884 114.747 -32.7031C114.325 -32.5177 113.861 -32.4754 113.457 -32.5855C113.053 -32.6956 112.741 -32.9491 112.591 -33.2902L110.896 -37.1482ZM127.698 18.3744C127.548 18.0333 127.572 17.6325 127.765 17.2603C127.957 16.8881 128.302 16.5748 128.724 16.3894C129.146 16.2041 129.61 16.1618 130.014 16.2719C130.419 16.382 130.73 16.6355 130.88 16.9765L131.445 18.2626L128.263 19.6604L127.698 18.3744ZM108.488 -25.3504C108.338 -25.6915 108.362 -26.0922 108.555 -26.4645C108.747 -26.8367 109.092 -27.15 109.514 -27.3354C109.936 -27.5207 110.4 -27.563 110.804 -27.4529C111.209 -27.3428 111.52 -27.0893 111.67 -26.7483L114.495 -20.3181C114.645 -19.9771 114.621 -19.5763 114.428 -19.2041C114.236 -18.8318 113.891 -18.5186 113.469 -18.3332C113.047 -18.1478 112.583 -18.1056 112.179 -18.2157C111.774 -18.3258 111.463 -18.5792 111.313 -18.9203L108.488 -25.3504ZM123.623 -42.7396C123.473 -43.0806 123.497 -43.4814 123.689 -43.8536C123.882 -44.2259 124.227 -44.5391 124.649 -44.7245C125.071 -44.9099 125.535 -44.9521 125.939 -44.842C126.343 -44.7319 126.655 -44.4785 126.805 -44.1374L129.065 -38.9933C129.214 -38.6522 129.191 -38.2515 128.998 -37.8792C128.806 -37.507 128.461 -37.1937 128.039 -37.0083C127.617 -36.823 127.153 -36.7807 126.748 -36.8908C126.344 -37.0009 126.033 -37.2544 125.883 -37.5955L123.623 -42.7396ZM143.963 3.55728C143.813 3.2162 143.837 2.81546 144.03 2.44322C144.222 2.07097 144.567 1.75771 144.989 1.57234C145.411 1.38698 145.875 1.3447 146.279 1.4548C146.684 1.5649 146.995 1.81838 147.145 2.15945L149.405 7.30354C149.555 7.64462 149.531 8.04536 149.338 8.41761C149.146 8.78985 148.801 9.10312 148.379 9.28848C147.957 9.47385 147.493 9.51612 147.089 9.40602C146.684 9.29592 146.373 9.04245 146.223 8.70137L143.963 3.55728ZM105.783 20.3312C105.634 19.9901 105.657 19.5894 105.85 19.2172C106.042 18.8449 106.387 18.5316 106.809 18.3463C107.231 18.1609 107.695 18.1186 108.1 18.2287C108.504 18.3388 108.815 18.5923 108.965 18.9334L111.225 24.0775C111.375 24.4186 111.351 24.8193 111.159 25.1915C110.966 25.5638 110.621 25.8771 110.199 26.0624C109.777 26.2478 109.313 26.2901 108.909 26.18C108.505 26.0699 108.193 25.8164 108.043 25.4753L105.783 20.3312ZM85.4432 -25.9656C85.2934 -26.3067 85.3173 -26.7074 85.5097 -27.0797C85.702 -27.4519 86.0472 -27.7652 86.4691 -27.9506C86.891 -28.1359 87.3551 -28.1782 87.7594 -28.0681C88.1637 -27.958 88.475 -27.7045 88.6249 -27.3634L90.8849 -22.2194C91.0348 -21.8783 91.0109 -21.4775 90.8185 -21.1053C90.6261 -20.733 90.281 -20.4198 89.8591 -20.2344C89.4372 -20.0491 88.973 -20.0068 88.5687 -20.1169C88.1644 -20.227 87.8531 -20.4804 87.7033 -20.8215L85.4432 -25.9656ZM103.403 -36.9246L106.585 -38.3225L107.15 -37.0364C107.3 -36.6954 107.276 -36.2946 107.083 -35.9224C106.891 -35.5501 106.546 -35.2369 106.124 -35.0515C105.702 -34.8661 105.238 -34.8239 104.834 -34.934C104.429 -35.0441 104.118 -35.2975 103.968 -35.6386L103.403 -36.9246ZM120.353 1.65606C120.203 1.31499 120.227 0.914247 120.42 0.542C120.612 0.169751 120.957 -0.143513 121.379 -0.328876C121.801 -0.514239 122.265 -0.55652 122.669 -0.446414C123.074 -0.336311 123.385 -0.0828397 123.535 0.258234L126.36 6.68835C126.51 7.02942 126.486 7.43016 126.293 7.80241C126.101 8.17466 125.756 8.48792 125.334 8.67329C124.912 8.85865 124.448 8.90093 124.044 8.79083C123.639 8.68072 123.328 8.42725 123.178 8.08618L120.353 1.65606ZM124.709 -18.6686C124.398 -19.3759 124.86 -20.2691 125.735 -20.6535L133.689 -24.1481C134.111 -24.3335 134.575 -24.3758 134.979 -24.2657C135.383 -24.1556 135.695 -23.9021 135.845 -23.561C135.995 -23.2199 135.971 -22.8192 135.778 -22.4469C135.586 -22.0747 135.241 -21.7614 134.819 -21.5761L126.865 -18.0815C126.443 -17.8961 125.979 -17.8539 125.574 -17.964C125.17 -18.0741 124.859 -18.3275 124.709 -18.6686ZM129.229 -8.38043C128.918 -9.08774 129.38 -9.98096 130.255 -10.3654L138.209 -13.8599C138.631 -14.0453 139.095 -14.0876 139.499 -13.9775C139.904 -13.8674 140.215 -13.6139 140.365 -13.2728C140.515 -12.9318 140.491 -12.531 140.298 -12.1588C140.106 -11.7865 139.761 -11.4733 139.339 -11.2879L131.385 -7.79332C130.963 -7.60796 130.499 -7.56567 130.094 -7.67578C129.69 -7.78588 129.379 -8.03935 129.229 -8.38043ZM105.262 -2.4537C105.684 -2.63907 106.029 -2.95233 106.222 -3.32457C106.414 -3.69682 106.438 -4.09756 106.288 -4.43864C106.138 -4.77971 105.827 -5.03318 105.423 -5.14329C105.018 -5.25339 104.554 -5.21111 104.132 -5.02575C103.711 -4.84038 103.365 -4.52712 103.173 -4.15487C102.981 -3.78263 102.957 -3.38188 103.107 -3.04081C103.256 -2.69974 103.568 -2.44627 103.972 -2.33616C104.376 -2.22606 104.841 -2.26834 105.262 -2.4537ZM118.971 11.4689C119.393 11.2836 119.738 10.9703 119.93 10.5981C120.123 10.2258 120.146 9.82508 119.997 9.48401C119.847 9.14293 119.535 8.88946 119.131 8.77935C118.727 8.66925 118.263 8.71153 117.841 8.8969C117.419 9.08226 117.074 9.39552 116.881 9.76777C116.689 10.14 116.665 10.5408 116.815 10.8818C116.965 11.2229 117.276 11.4764 117.68 11.5865C118.085 11.6966 118.549 11.6543 118.971 11.4689ZM131.697 5.87763C132.119 5.69227 132.464 5.379 132.657 5.00676C132.849 4.63451 132.873 4.23377 132.723 3.8927C132.573 3.55162 132.262 3.29815 131.858 3.18804C131.453 3.07794 130.989 3.12022 130.567 3.30558C130.145 3.49095 129.8 3.80421 129.608 4.17646C129.416 4.54871 129.392 4.94945 129.541 5.29052C129.691 5.6316 130.003 5.88507 130.407 5.99517C130.811 6.10527 131.275 6.06299 131.697 5.87763ZM104.281 -21.9677C104.703 -22.153 105.048 -22.4663 105.24 -22.8385C105.432 -23.2108 105.456 -23.6115 105.306 -23.9526C105.157 -24.2937 104.845 -24.5471 104.441 -24.6572C104.037 -24.7673 103.573 -24.7251 103.151 -24.5397C102.729 -24.3543 102.384 -24.0411 102.191 -23.6688C101.999 -23.2966 101.975 -22.8958 102.125 -22.5548C102.275 -22.2137 102.586 -21.9602 102.99 -21.8501C103.395 -21.74 103.859 -21.7823 104.281 -21.9677ZM117.007 -27.559C117.429 -27.7443 117.774 -28.0576 117.967 -28.4298C118.159 -28.8021 118.183 -29.2028 118.033 -29.5439C117.883 -29.885 117.572 -30.1385 117.168 -30.2486C116.763 -30.3587 116.299 -30.3164 115.877 -30.131C115.455 -29.9457 115.11 -29.6324 114.918 -29.2601C114.725 -28.8879 114.702 -28.4872 114.851 -28.1461C115.001 -27.805 115.313 -27.5515 115.717 -27.4414C116.121 -27.3313 116.585 -27.3736 117.007 -27.559ZM108.384 -29.9074C108.806 -30.0928 109.151 -30.406 109.343 -30.7783C109.536 -31.1505 109.56 -31.5513 109.41 -31.8923C109.26 -32.2334 108.949 -32.4869 108.544 -32.597C108.14 -32.7071 107.676 -32.6648 107.254 -32.4795C106.832 -32.2941 106.487 -31.9808 106.295 -31.6086C106.102 -31.2363 106.078 -30.8356 106.228 -30.4945C106.378 -30.1534 106.689 -29.9 107.094 -29.7899C107.498 -29.6798 107.962 -29.722 108.384 -29.9074ZM127.594 13.8174C128.016 13.632 128.361 13.3188 128.553 12.9465C128.746 12.5743 128.77 12.1735 128.62 11.8324C128.47 11.4914 128.159 11.2379 127.754 11.1278C127.35 11.0177 126.886 11.06 126.464 11.2453C126.042 11.4307 125.697 11.744 125.505 12.1162C125.312 12.4885 125.288 12.8892 125.438 13.2303C125.588 13.5713 125.899 13.8248 126.304 13.9349C126.708 14.045 127.172 14.0027 127.594 13.8174ZM130.716 -13.6363C131.137 -13.8217 131.483 -14.1349 131.675 -14.5072C131.867 -14.8794 131.891 -15.2802 131.741 -15.6213C131.592 -15.9623 131.28 -16.2158 130.876 -16.3259C130.472 -16.436 130.007 -16.3937 129.586 -16.2084C129.164 -16.023 128.819 -15.7097 128.626 -15.3375C128.434 -14.9652 128.41 -14.5645 128.56 -14.2234C128.71 -13.8824 129.021 -13.6289 129.425 -13.5188C129.829 -13.4087 130.294 -13.451 130.716 -13.6363ZM140.052 -26.9438C139.63 -26.7584 139.285 -26.4451 139.093 -26.0729C138.9 -25.7007 138.876 -25.2999 139.026 -24.9588C139.176 -24.6178 139.487 -24.3643 139.892 -24.2542C140.296 -24.1441 140.76 -24.1864 141.182 -24.3717C141.809 -24.6471 142.473 -24.8199 143.137 -24.8804C143.802 -24.9409 144.453 -24.8879 145.053 -24.7243C145.654 -24.5608 146.192 -24.2899 146.638 -23.9272C147.083 -23.5645 147.427 -23.1171 147.65 -22.6104C147.872 -22.1038 147.969 -21.5478 147.935 -20.9744C147.901 -20.4009 147.736 -19.8212 147.45 -19.2682C147.165 -18.7153 146.763 -18.1999 146.269 -17.7517C145.776 -17.3034 145.199 -16.9309 144.572 -16.6556C144.15 -16.4702 143.805 -16.157 143.613 -15.7847C143.42 -15.4125 143.396 -15.0117 143.546 -14.6707C143.696 -14.3296 144.007 -14.0761 144.412 -13.966C144.816 -13.8559 145.28 -13.8982 145.702 -14.0835C147.812 -15.0104 149.537 -16.5767 150.499 -18.4379C151.461 -20.2992 151.58 -22.3029 150.831 -24.0082C150.082 -25.7136 148.525 -26.9809 146.504 -27.5315C144.482 -28.082 142.162 -27.8706 140.052 -26.9438ZM89.1458 -4.57853C89.5677 -4.76389 90.0319 -4.80617 90.4362 -4.69607C90.8405 -4.58597 91.1518 -4.33249 91.3017 -3.99142C91.4515 -3.65034 91.4276 -3.2496 91.2352 -2.87736C91.0429 -2.50511 90.6978 -2.19185 90.2758 -2.00648C89.6491 -1.73113 89.0724 -1.35869 88.5785 -0.910415C88.0847 -0.462141 87.6834 0.053185 87.3977 0.606141C87.1119 1.1591 86.9472 1.73885 86.913 2.3123C86.8788 2.88576 86.9758 3.44168 87.1984 3.94833C87.421 4.45498 87.7648 4.90243 88.2103 5.26514C88.6558 5.62785 89.1942 5.89872 89.7948 6.06227C90.3953 6.22583 91.0463 6.27887 91.7105 6.21837C92.3747 6.15786 93.0391 5.985 93.6659 5.70965C94.0878 5.52429 94.5519 5.48201 94.9562 5.59211C95.3605 5.70222 95.6718 5.95569 95.8217 6.29677C95.9715 6.63784 95.9476 7.03858 95.7553 7.41083C95.5629 7.78308 95.2178 8.09634 94.7959 8.2817C92.6863 9.20852 90.3655 9.41992 88.344 8.8694C86.3226 8.31888 84.766 7.05153 84.0167 5.34616C83.2675 3.64078 83.387 1.63708 84.3489 -0.224157C85.3108 -2.0854 87.0363 -3.65171 89.1458 -4.57853ZM130.299 -31.8643C130.721 -32.0496 131.066 -32.3629 131.258 -32.7351C131.451 -33.1074 131.474 -33.5081 131.325 -33.8492C131.175 -34.1903 130.863 -34.4437 130.459 -34.5538C130.055 -34.6639 129.591 -34.6217 129.169 -34.4363C128.747 -34.2509 128.402 -33.9377 128.209 -33.5654C128.017 -33.1932 127.993 -32.7924 128.143 -32.4514C128.293 -32.1103 128.604 -31.8568 129.008 -31.7467C129.413 -31.6366 129.877 -31.6789 130.299 -31.8643ZM143.859 -0.999703C144.281 -1.18507 144.626 -1.49833 144.818 -1.87058C145.011 -2.24282 145.035 -2.64357 144.885 -2.98464C144.735 -3.32571 144.424 -3.57919 144.019 -3.68929C143.615 -3.7994 143.151 -3.75711 142.729 -3.57175C142.307 -3.38638 141.962 -3.07313 141.769 -2.70087C141.577 -2.32863 141.553 -1.92789 141.703 -1.58681C141.853 -1.24574 142.164 -0.992267 142.569 -0.882164C142.973 -0.772059 143.437 -0.814338 143.859 -0.999703ZM105.679 15.7742C106.101 15.5889 106.446 15.2756 106.639 14.9034C106.831 14.5311 106.855 14.1304 106.705 13.7893C106.555 13.4482 106.244 13.1947 105.84 13.0846C105.435 12.9745 104.971 13.0168 104.549 13.2022C104.127 13.3875 103.782 13.7008 103.59 14.0731C103.397 14.4453 103.374 14.846 103.523 15.1871C103.673 15.5282 103.985 15.7817 104.389 15.8918C104.793 16.0019 105.257 15.9596 105.679 15.7742ZM92.1191 -15.0903C92.541 -15.2757 92.8861 -15.5889 93.0785 -15.9612C93.2709 -16.3334 93.2948 -16.7342 93.1449 -17.0753C92.9951 -17.4163 92.6838 -17.6698 92.2795 -17.7799C91.8752 -17.89 91.411 -17.8477 90.9891 -17.6624C90.5672 -17.477 90.2221 -17.1637 90.0297 -16.7915C89.8373 -16.4192 89.8134 -16.0185 89.9633 -15.6774C90.1131 -15.3364 90.4244 -15.0829 90.8287 -14.9728C91.233 -14.8627 91.6972 -14.905 92.1191 -15.0903ZM120.249 -2.90092C118.139 -1.97411 115.819 -1.7627 113.797 -2.31322C111.776 -2.86374 110.219 -4.13109 109.47 -5.83647C108.721 -7.54184 108.84 -9.54554 109.802 -11.4068C110.764 -13.268 112.489 -14.8343 114.599 -15.7612C116.709 -16.688 119.029 -16.8994 121.051 -16.3488C123.072 -15.7983 124.629 -14.531 125.378 -12.8256C126.127 -11.1202 126.008 -9.11653 125.046 -7.25529C124.084 -5.39405 122.359 -3.82774 120.249 -2.90092ZM119.119 -5.47297C119.746 -5.74832 120.322 -6.12076 120.816 -6.56903C121.31 -7.01731 121.711 -7.53264 121.997 -8.08559C122.283 -8.63854 122.448 -9.2183 122.482 -9.79175C122.516 -10.3652 122.419 -10.9211 122.196 -11.4278C121.974 -11.9344 121.63 -12.3819 121.185 -12.7446C120.739 -13.1073 120.201 -13.3782 119.6 -13.5417C119 -13.7053 118.349 -13.7583 117.684 -13.6978C117.02 -13.6373 116.356 -13.4645 115.729 -13.1891C114.463 -12.633 113.428 -11.6932 112.851 -10.5765C112.274 -9.45974 112.202 -8.25752 112.652 -7.23429C113.101 -6.21107 114.035 -5.45066 115.248 -5.12035C116.461 -4.79003 117.853 -4.91688 119.119 -5.47297ZM137.584 -41.2018C136.957 -40.9265 136.293 -40.7536 135.628 -40.6931C134.964 -40.6326 134.313 -40.6857 133.713 -40.8492C133.112 -41.0128 132.574 -41.2836 132.128 -41.6463C131.683 -42.0091 131.339 -42.4565 131.116 -42.9632C130.894 -43.4698 130.797 -44.0257 130.831 -44.5992C130.865 -45.1726 131.03 -45.7524 131.316 -46.3053C131.601 -46.8583 132.003 -47.3736 132.496 -47.8219C132.99 -48.2702 133.567 -48.6426 134.194 -48.918C135.459 -49.4741 136.852 -49.6009 138.065 -49.2706C139.278 -48.9403 140.212 -48.1799 140.661 -47.1566C141.111 -46.1334 141.039 -44.9312 140.462 -43.8145C139.885 -42.6977 138.849 -41.7579 137.584 -41.2018ZM136.454 -43.7739C136.876 -43.9592 137.221 -44.2725 137.413 -44.6448C137.605 -45.017 137.629 -45.4177 137.48 -45.7588C137.33 -46.0999 137.018 -46.3534 136.614 -46.4635C136.21 -46.5736 135.746 -46.5313 135.324 -46.3459C134.902 -46.1606 134.557 -45.8473 134.364 -45.4751C134.172 -45.1028 134.148 -44.7021 134.298 -44.361C134.448 -44.0199 134.759 -43.7664 135.163 -43.6563C135.568 -43.5462 136.032 -43.5885 136.454 -43.7739ZM90.38 2.5505C90.0693 1.84319 90.5309 0.949966 91.4058 0.565563L97.7691 -2.23009C98.191 -2.41546 98.6552 -2.45774 99.0595 -2.34763C99.4638 -2.23753 99.7751 -1.98406 99.925 -1.64298C100.075 -1.30191 100.051 -0.901167 99.8585 -0.528919C99.6662 -0.156669 99.3211 0.15659 98.8991 0.341954L92.5359 3.13761C92.1139 3.32297 91.6498 3.36526 91.2455 3.25515C90.8412 3.14505 90.5299 2.89158 90.38 2.5505ZM134.923 -17.0191C134.612 -17.7264 135.074 -18.6196 135.949 -19.004L142.312 -21.7997C142.734 -21.985 143.198 -22.0273 143.602 -21.9172C144.007 -21.8071 144.318 -21.5536 144.468 -21.2126C144.618 -20.8715 144.594 -20.4708 144.402 -20.0985C144.209 -19.7263 143.864 -19.413 143.442 -19.2276L137.079 -16.432C136.657 -16.2466 136.193 -16.2043 135.788 -16.3144C135.384 -16.4245 135.073 -16.678 134.923 -17.0191ZM148.066 -4.38247C147.756 -5.08978 148.217 -5.983 149.092 -6.3674L155.455 -9.16306C155.877 -9.34842 156.342 -9.39071 156.746 -9.2806C157.15 -9.1705 157.461 -8.91702 157.611 -8.57595C157.761 -8.23488 157.737 -7.83414 157.545 -7.46189C157.352 -7.08964 157.007 -6.77638 156.585 -6.59101L150.222 -3.79536C149.8 -3.61 149.336 -3.56771 148.932 -3.67782C148.528 -3.78792 148.216 -4.04139 148.066 -4.38247ZM91.5922 20.429C91.2814 19.7217 91.7431 18.8284 92.618 18.444L98.9813 15.6484C99.4032 15.463 99.8674 15.4207 100.272 15.5308C100.676 15.6409 100.987 15.8944 101.137 16.2355C101.287 16.5766 101.263 16.9773 101.071 17.3496C100.878 17.7218 100.533 18.0351 100.111 18.2204L93.748 21.0161C93.3261 21.2015 92.862 21.2437 92.4577 21.1336C92.0534 21.0235 91.742 20.77 91.5922 20.429ZM78.0321 -10.4356C77.7214 -11.1429 78.183 -12.0361 79.0579 -12.4205L85.4212 -15.2162C85.8431 -15.4015 86.3073 -15.4438 86.7116 -15.3337C87.1159 -15.2236 87.4272 -14.9701 87.577 -14.6291C87.7269 -14.288 87.703 -13.8872 87.5106 -13.515C87.3182 -13.1428 86.9731 -12.8295 86.5512 -12.6441L80.1879 -9.84847C79.766 -9.6631 79.3019 -9.62082 78.8976 -9.73093C78.4933 -9.84103 78.182 -10.0945 78.0321 -10.4356ZM134.506 -35.247C134.196 -35.9543 134.657 -36.8476 135.532 -37.232L141.895 -40.0276C142.317 -40.213 142.781 -40.2553 143.186 -40.1452C143.59 -40.0351 143.901 -39.7816 144.051 -39.4405C144.201 -39.0994 144.177 -38.6987 143.985 -38.3264C143.792 -37.9542 143.447 -37.6409 143.025 -37.4556L136.662 -34.6599C136.24 -34.4746 135.776 -34.4323 135.372 -34.5424C134.967 -34.6525 134.656 -34.9059 134.506 -35.247ZM157.924 5.095C156.658 5.65109 155.266 5.77792 154.053 5.44761C152.84 5.1173 151.906 4.35689 151.456 3.33367C151.007 2.31045 151.079 1.10823 151.656 -0.00851556C152.233 -1.12526 153.268 -2.06505 154.534 -2.62114C155.8 -3.17723 157.192 -3.30407 158.405 -2.97375C159.618 -2.64345 160.552 -1.88303 161.001 -0.859813C161.451 0.163411 161.379 1.36563 160.802 2.48237C160.225 3.59912 159.19 4.53891 157.924 5.095ZM156.794 2.52295C157.216 2.33759 157.561 2.02432 157.753 1.65208C157.946 1.27983 157.97 0.879086 157.82 0.538012C157.67 0.196938 157.358 -0.0565332 156.954 -0.166636C156.55 -0.276743 156.086 -0.234458 155.664 -0.0490934C155.242 0.136268 154.897 0.449528 154.704 0.821778C154.512 1.19402 154.488 1.59477 154.638 1.93584C154.788 2.27691 155.099 2.53039 155.503 2.64049C155.908 2.7506 156.372 2.70831 156.794 2.52295ZM100.654 30.2559C99.3885 30.812 97.9961 30.9388 96.7832 30.6085C95.5703 30.2782 94.6364 29.5178 94.1868 28.4946C93.7373 27.4713 93.8089 26.2691 94.3861 25.1524C94.9632 24.0356 95.9985 23.0959 97.2643 22.5398C98.53 21.9837 99.9225 21.8568 101.135 22.1871C102.348 22.5175 103.282 23.2779 103.732 24.3011C104.181 25.3243 104.11 26.5265 103.532 27.6433C102.955 28.76 101.92 29.6998 100.654 30.2559ZM99.5243 27.6839C99.9462 27.4985 100.291 27.1852 100.484 26.813C100.676 26.4407 100.7 26.04 100.55 25.6989C100.4 25.3578 100.089 25.1044 99.6846 24.9943C99.2803 24.8842 98.8162 24.9264 98.3943 25.1118C97.9724 25.2972 97.6273 25.6104 97.4349 25.9827C97.2425 26.3549 97.2186 26.7557 97.3685 27.0967C97.5183 27.4378 97.8296 27.6913 98.2339 27.8014C98.6382 27.9115 99.1024 27.8692 99.5243 27.6839ZM80.3142 -16.0409C79.6874 -15.7656 79.023 -15.5927 78.3588 -15.5322C77.6946 -15.4717 77.0436 -15.5248 76.4431 -15.6883C75.8425 -15.8519 75.3041 -16.1227 74.8586 -16.4854C74.4131 -16.8482 74.0693 -17.2956 73.8467 -17.8023C73.6241 -18.3089 73.5271 -18.8648 73.5613 -19.4383C73.5955 -20.0117 73.7602 -20.5915 74.046 -21.1444C74.3317 -21.6974 74.733 -22.2127 75.2268 -22.661C75.7207 -23.1093 76.2974 -23.4817 76.9241 -23.7571C78.1899 -24.3132 79.5823 -24.44 80.7952 -24.1097C82.0081 -23.7794 82.9421 -23.019 83.3916 -21.9957C83.8412 -20.9725 83.7695 -19.7703 83.1923 -18.6536C82.6152 -17.5368 81.5799 -16.597 80.3142 -16.0409ZM79.1842 -18.613C79.6061 -18.7983 79.9512 -19.1116 80.1435 -19.4839C80.3359 -19.8561 80.3598 -20.2568 80.21 -20.5979C80.0601 -20.939 79.7488 -21.1925 79.3445 -21.3026C78.9402 -21.4127 78.4761 -21.3704 78.0541 -21.185C77.6322 -20.9997 77.2871 -20.6864 77.0947 -20.3141C76.9024 -19.9419 76.8785 -19.5412 77.0283 -19.2001C77.1782 -18.859 77.4895 -18.6055 77.8938 -18.4954C78.2981 -18.3853 78.7622 -18.4276 79.1842 -18.613ZM117.989 -8.04501C118.411 -8.23038 118.756 -8.54364 118.948 -8.91589C119.141 -9.28813 119.165 -9.68888 119.015 -10.03C118.865 -10.371 118.554 -10.6245 118.149 -10.7346C117.745 -10.8447 117.281 -10.8024 116.859 -10.6171C116.437 -10.4317 116.092 -10.1184 115.9 -9.74619C115.707 -9.37394 115.683 -8.9732 115.833 -8.63212C115.983 -8.29105 116.294 -8.03758 116.699 -7.92747C117.103 -7.81737 117.567 -7.85965 117.989 -8.04501Z" fill="#3F3641" fill-opacity="0.05"/>
</g>
<g clip-path="url(#clip3)">
<path fill-rule="evenodd" clip-rule="evenodd" d="M126.566 42.9675C126.751 42.6102 126.787 42.2183 126.632 41.8646L118.719 23.8539L115.537 25.2517L122.882 41.97L102.202 51.0559L103.332 53.6279L125.603 43.8431C126.041 43.6509 126.376 43.3347 126.561 42.9775L126.569 42.974L126.566 42.9675ZM134.809 61.7306C135.197 61.8363 135.514 62.0809 135.666 62.4281L143.579 80.4389L140.398 81.8367L133.052 65.1184L112.372 74.2043L111.242 71.6323L133.513 61.8475C133.959 61.6518 134.411 61.622 134.799 61.7277L134.809 61.7306ZM158.004 51.5404C157.819 51.8977 157.782 52.2897 157.938 52.6433L165.851 70.6541L169.032 69.2563L161.687 52.538L182.368 43.4521L181.238 40.88L158.966 50.6648C158.529 50.857 158.193 51.1732 158.009 51.5305L158.001 51.534L158.004 51.5404ZM151.517 29.3896L144.172 12.6713L140.991 14.0691L148.901 32.0734C149.056 32.4271 149.372 32.6717 149.76 32.7774C150.159 32.886 150.611 32.8562 151.048 32.664L173.328 22.8757L172.198 20.3037L151.517 29.3896ZM119.344 51.1958C119.033 50.4885 119.495 49.5952 120.37 49.2108L128.324 45.7163C128.746 45.5309 129.21 45.4886 129.614 45.5987C130.019 45.7088 130.33 45.9623 130.48 46.3034C130.63 46.6445 130.606 47.0452 130.413 47.4174C130.221 47.7897 129.876 48.103 129.454 48.2883L121.5 51.7829C121.078 51.9682 120.614 52.0105 120.21 51.9004C119.805 51.7903 119.494 51.5369 119.344 51.1958ZM123.864 61.484C123.553 60.7766 124.015 59.8834 124.89 59.499L132.844 56.0045C133.266 55.8191 133.73 55.7768 134.134 55.8869C134.539 55.997 134.85 56.2505 135 56.5916C135.15 56.9326 135.126 57.3334 134.933 57.7056C134.741 58.0779 134.396 58.3911 133.974 58.5765L126.02 62.0711C125.598 62.2564 125.134 62.2987 124.73 62.1886C124.325 62.0785 124.014 61.825 123.864 61.484ZM129.246 39.1743C129.096 38.8333 129.12 38.4325 129.312 38.0603C129.504 37.688 129.85 37.3748 130.272 37.1894C130.693 37.004 131.158 36.9618 131.562 37.0719C131.966 37.182 132.277 37.4354 132.427 37.7765L133.557 40.3486C133.707 40.6896 133.683 41.0904 133.491 41.4626C133.299 41.8349 132.953 42.1481 132.532 42.3335C132.11 42.5189 131.645 42.5611 131.241 42.451C130.837 42.3409 130.526 42.0875 130.376 41.7464L129.246 39.1743ZM141.972 33.583C141.822 33.242 141.846 32.8412 142.039 32.469C142.231 32.0967 142.576 31.7835 142.998 31.5981C143.42 31.4127 143.884 31.3705 144.288 31.4806C144.693 31.5907 145.004 31.8441 145.154 32.1852L146.284 34.7573C146.434 35.0983 146.41 35.4991 146.217 35.8713C146.025 36.2436 145.68 36.5568 145.258 36.7422C144.836 36.9276 144.372 36.9698 143.968 36.8597C143.563 36.7496 143.252 36.4962 143.102 36.1551L141.972 33.583ZM138.286 59.7507C138.136 59.4096 138.16 59.0089 138.352 58.6367C138.545 58.2644 138.89 57.9511 139.312 57.7658C139.733 57.5804 140.198 57.5381 140.602 57.6482C141.006 57.7583 141.318 58.0118 141.467 58.3529L142.597 60.9249C142.747 61.266 142.723 61.6667 142.531 62.039C142.339 62.4112 141.993 62.7245 141.572 62.9099C141.15 63.0952 140.686 63.1375 140.281 63.0274C139.877 62.9173 139.566 62.6638 139.416 62.3228L138.286 59.7507ZM151.012 54.1594C150.862 53.8183 150.886 53.4176 151.079 53.0453C151.271 52.6731 151.616 52.3598 152.038 52.1745C152.46 51.9891 152.924 51.9468 153.329 52.0569C153.733 52.167 154.044 52.4205 154.194 52.7616L155.324 55.3336C155.474 55.6747 155.45 56.0754 155.258 56.4477C155.065 56.8199 154.72 57.1332 154.298 57.3186C153.876 57.5039 153.412 57.5462 153.008 57.4361C152.603 57.326 152.292 57.0725 152.142 56.7315L151.012 54.1594ZM143.936 72.6109C143.786 72.2699 143.81 71.8691 144.002 71.4969C144.195 71.1246 144.54 70.8114 144.962 70.626C145.384 70.4406 145.848 70.3984 146.252 70.5085C146.656 70.6186 146.968 70.872 147.117 71.2131L148.812 75.0712C148.962 75.4123 148.938 75.813 148.746 76.1853C148.554 76.5575 148.209 76.8708 147.787 77.0561C147.365 77.2415 146.901 77.2838 146.496 77.1737C146.092 77.0636 145.781 76.8101 145.631 76.469L143.936 72.6109ZM156.662 67.0196C156.513 66.6786 156.536 66.2778 156.729 65.9056C156.921 65.5333 157.266 65.2201 157.688 65.0347C158.11 64.8493 158.574 64.8071 158.979 64.9172C159.383 65.0273 159.694 65.2807 159.844 65.6218L161.539 69.4799C161.689 69.821 161.665 70.2217 161.473 70.5939C161.28 70.9662 160.935 71.2795 160.513 71.4648C160.091 71.6502 159.627 71.6925 159.223 71.5824C158.819 71.4722 158.507 71.2188 158.357 70.8777L156.662 67.0196ZM123.031 25.0281C122.881 24.687 122.905 24.2863 123.097 23.914C123.289 23.5418 123.635 23.2285 124.056 23.0432C124.478 22.8578 124.943 22.8155 125.347 22.9256C125.751 23.0357 126.062 23.2892 126.212 23.6303L127.907 27.4883C128.057 27.8294 128.033 28.2301 127.841 28.6024C127.649 28.9746 127.303 29.2879 126.881 29.4733C126.46 29.6586 125.995 29.7009 125.591 29.5908C125.187 29.4807 124.876 29.2272 124.726 28.8862L123.031 25.0281ZM135.757 19.4368C135.607 19.0957 135.631 18.695 135.824 18.3227C136.016 17.9505 136.361 17.6372 136.783 17.4518C137.205 17.2665 137.669 17.2242 138.073 17.3343C138.478 17.4444 138.789 17.6979 138.939 18.039L140.634 21.897C140.784 22.2381 140.76 22.6388 140.567 23.0111C140.375 23.3833 140.03 23.6966 139.608 23.882C139.186 24.0673 138.722 24.1096 138.318 23.9995C137.913 23.8894 137.602 23.6359 137.452 23.2949L135.757 19.4368ZM152.559 74.9594C152.409 74.6183 152.433 74.2176 152.626 73.8453C152.818 73.4731 153.163 73.1598 153.585 72.9744C154.007 72.7891 154.471 72.7468 154.875 72.8569C155.28 72.967 155.591 73.2205 155.741 73.5616L156.306 74.8476L153.124 76.2454L152.559 74.9594ZM133.349 31.2346C133.199 30.8935 133.223 30.4928 133.415 30.1205C133.608 29.7483 133.953 29.435 134.375 29.2497C134.797 29.0643 135.261 29.022 135.665 29.1321C136.069 29.2422 136.381 29.4957 136.531 29.8368L139.356 36.2669C139.505 36.608 139.482 37.0087 139.289 37.3809C139.097 37.7532 138.752 38.0665 138.33 38.2518C137.908 38.4372 137.444 38.4795 137.039 38.3694C136.635 38.2593 136.324 38.0058 136.174 37.6647L133.349 31.2346ZM148.484 13.8455C148.334 13.5044 148.358 13.1037 148.55 12.7314C148.743 12.3592 149.088 12.0459 149.51 11.8605C149.932 11.6752 150.396 11.6329 150.8 11.743C151.204 11.8531 151.516 12.1066 151.665 12.4476L153.925 17.5917C154.075 17.9328 154.051 18.3336 153.859 18.7058C153.667 19.078 153.322 19.3913 152.9 19.5767C152.478 19.762 152.014 19.8043 151.609 19.6942C151.205 19.5841 150.894 19.3306 150.744 18.9896L148.484 13.8455ZM168.824 60.1423C168.674 59.8012 168.698 59.4005 168.89 59.0282C169.083 58.656 169.428 58.3427 169.85 58.1574C170.272 57.972 170.736 57.9297 171.14 58.0398C171.544 58.1499 171.856 58.4034 172.006 58.7445L174.266 63.8886C174.415 64.2296 174.392 64.6304 174.199 65.0026C174.007 65.3749 173.662 65.6881 173.24 65.8735C172.818 66.0589 172.354 66.1011 171.949 65.991C171.545 65.8809 171.234 65.6275 171.084 65.2864L168.824 60.1423ZM130.644 76.9162C130.494 76.5752 130.518 76.1744 130.711 75.8022C130.903 75.4299 131.248 75.1167 131.67 74.9313C132.092 74.7459 132.556 74.7037 132.96 74.8138C133.365 74.9239 133.676 75.1773 133.826 75.5184L136.086 80.6625C136.236 81.0036 136.212 81.4043 136.019 81.7766C135.827 82.1488 135.482 82.4621 135.06 82.6474C134.638 82.8328 134.174 82.8751 133.77 82.765C133.365 82.6549 133.054 82.4014 132.904 82.0603L130.644 76.9162ZM110.304 30.6194C110.154 30.2783 110.178 29.8776 110.371 29.5053C110.563 29.1331 110.908 28.8198 111.33 28.6345C111.752 28.4491 112.216 28.4068 112.62 28.5169C113.025 28.627 113.336 28.8805 113.486 29.2216L115.746 34.3657C115.896 34.7067 115.872 35.1075 115.679 35.4797C115.487 35.852 115.142 36.1652 114.72 36.3506C114.298 36.536 113.834 36.5783 113.43 36.4681C113.025 36.358 112.714 36.1046 112.564 35.7635L110.304 30.6194ZM128.264 19.6604L131.446 18.2626L132.011 19.5486C132.16 19.8897 132.137 20.2904 131.944 20.6627C131.752 21.0349 131.407 21.3482 130.985 21.5335C130.563 21.7189 130.099 21.7612 129.694 21.6511C129.29 21.541 128.979 21.2875 128.829 20.9464L128.264 19.6604ZM145.214 58.2411C145.064 57.9 145.088 57.4993 145.28 57.127C145.473 56.7548 145.818 56.4415 146.24 56.2561C146.662 56.0708 147.126 56.0285 147.53 56.1386C147.935 56.2487 148.246 56.5022 148.396 56.8433L151.221 63.2734C151.371 63.6144 151.347 64.0152 151.154 64.3874C150.962 64.7597 150.617 65.0729 150.195 65.2583C149.773 65.4437 149.309 65.486 148.905 65.3758C148.5 65.2657 148.189 65.0123 148.039 64.6712L145.214 58.2411ZM149.57 37.9164C149.259 37.2091 149.721 36.3159 150.596 35.9315L158.55 32.4369C158.972 32.2515 159.436 32.2093 159.84 32.3194C160.244 32.4295 160.556 32.6829 160.705 33.024C160.855 33.3651 160.831 33.7658 160.639 34.1381C160.447 34.5103 160.102 34.8236 159.68 35.0089L151.726 38.5035C151.304 38.6889 150.84 38.7312 150.435 38.6211C150.031 38.511 149.72 38.2575 149.57 37.9164ZM154.09 48.2046C153.779 47.4973 154.241 46.6041 155.116 46.2197L163.07 42.7251C163.492 42.5397 163.956 42.4974 164.36 42.6075C164.764 42.7177 165.076 42.9711 165.226 43.3122C165.375 43.6533 165.351 44.054 165.159 44.4263C164.967 44.7985 164.622 45.1118 164.2 45.2971L156.246 48.7917C155.824 48.9771 155.36 49.0193 154.955 48.9092C154.551 48.7991 154.24 48.5457 154.09 48.2046ZM130.123 54.1313C130.545 53.946 130.89 53.6327 131.083 53.2604C131.275 52.8882 131.299 52.4875 131.149 52.1464C130.999 51.8053 130.688 51.5518 130.284 51.4417C129.879 51.3316 129.415 51.3739 128.993 51.5593C128.571 51.7446 128.226 52.0579 128.034 52.4301C127.841 52.8024 127.818 53.2031 127.967 53.5442C128.117 53.8853 128.429 54.1388 128.833 54.2489C129.237 54.359 129.701 54.3167 130.123 54.1313ZM143.832 68.054C144.254 67.8686 144.599 67.5553 144.791 67.1831C144.983 66.8108 145.007 66.4101 144.857 66.069C144.708 65.728 144.396 65.4745 143.992 65.3644C143.588 65.2543 143.124 65.2966 142.702 65.4819C142.28 65.6673 141.935 65.9805 141.742 66.3528C141.55 66.725 141.526 67.1258 141.676 67.4669C141.826 67.8079 142.137 68.0614 142.541 68.1715C142.946 68.2816 143.41 68.2393 143.832 68.054ZM156.558 62.4627C156.98 62.2773 157.325 61.964 157.518 61.5918C157.71 61.2195 157.734 60.8188 157.584 60.4777C157.434 60.1366 157.123 59.8832 156.719 59.7731C156.314 59.663 155.85 59.7052 155.428 59.8906C155.006 60.076 154.661 60.3892 154.469 60.7615C154.276 61.1337 154.252 61.5345 154.402 61.8755C154.552 62.2166 154.864 62.4701 155.268 62.5802C155.672 62.6903 156.136 62.648 156.558 62.4627ZM129.142 34.6174C129.563 34.432 129.909 34.1187 130.101 33.7465C130.293 33.3742 130.317 32.9735 130.167 32.6324C130.017 32.2914 129.706 32.0379 129.302 31.9278C128.898 31.8177 128.433 31.86 128.011 32.0453C127.59 32.2307 127.244 32.5439 127.052 32.9162C126.86 33.2884 126.836 33.6892 126.986 34.0303C127.136 34.3713 127.447 34.6248 127.851 34.7349C128.255 34.845 128.72 34.8027 129.142 34.6174ZM141.868 29.0261C142.29 28.8407 142.635 28.5274 142.827 28.1552C143.02 27.7829 143.044 27.3822 142.894 27.0411C142.744 26.7 142.433 26.4466 142.028 26.3365C141.624 26.2264 141.16 26.2686 140.738 26.454C140.316 26.6394 139.971 26.9526 139.779 27.3249C139.586 27.6971 139.562 28.0979 139.712 28.4389C139.862 28.78 140.173 29.0335 140.578 29.1436C140.982 29.2537 141.446 29.2114 141.868 29.0261ZM133.245 26.6776C133.667 26.4923 134.012 26.179 134.204 25.8067C134.397 25.4345 134.42 25.0338 134.271 24.6927C134.121 24.3516 133.809 24.0981 133.405 23.988C133.001 23.8779 132.537 23.9202 132.115 24.1056C131.693 24.2909 131.348 24.6042 131.155 24.9764C130.963 25.3487 130.939 25.7494 131.089 26.0905C131.239 26.4316 131.55 26.6851 131.954 26.7952C132.359 26.9053 132.823 26.863 133.245 26.6776ZM152.455 70.4024C152.877 70.217 153.222 69.9038 153.414 69.5315C153.607 69.1593 153.631 68.7585 153.481 68.4175C153.331 68.0764 153.02 67.8229 152.615 67.7128C152.211 67.6027 151.747 67.645 151.325 67.8304C150.903 68.0157 150.558 68.329 150.365 68.7012C150.173 69.0735 150.149 69.4742 150.299 69.8153C150.449 70.1564 150.76 70.4098 151.165 70.5199C151.569 70.63 152.033 70.5878 152.455 70.4024ZM155.576 42.9487C155.998 42.7633 156.343 42.4501 156.536 42.0778C156.728 41.7056 156.752 41.3048 156.602 40.9638C156.452 40.6227 156.141 40.3692 155.737 40.2591C155.332 40.149 154.868 40.1913 154.446 40.3767C154.024 40.562 153.679 40.8753 153.487 41.2475C153.295 41.6198 153.271 42.0205 153.421 42.3616C153.57 42.7027 153.882 42.9561 154.286 43.0662C154.69 43.1763 155.154 43.1341 155.576 42.9487ZM164.913 29.6412C164.491 29.8266 164.146 30.1399 163.954 30.5121C163.761 30.8844 163.737 31.2851 163.887 31.6262C164.037 31.9673 164.348 32.2207 164.753 32.3308C165.157 32.4409 165.621 32.3987 166.043 32.2133C166.67 31.9379 167.334 31.7651 167.998 31.7046C168.663 31.6441 169.313 31.6971 169.914 31.8607C170.515 32.0242 171.053 32.2951 171.498 32.6578C171.944 33.0205 172.288 33.468 172.51 33.9746C172.733 34.4813 172.83 35.0372 172.796 35.6106C172.762 36.1841 172.597 36.7639 172.311 37.3168C172.025 37.8698 171.624 38.3851 171.13 38.8334C170.636 39.2816 170.06 39.6541 169.433 39.9294C169.011 40.1148 168.666 40.4281 168.474 40.8003C168.281 41.1726 168.257 41.5733 168.407 41.9144C168.557 42.2554 168.868 42.5089 169.273 42.619C169.677 42.7291 170.141 42.6868 170.563 42.5015C172.673 41.5747 174.398 40.0083 175.36 38.1471C176.322 36.2859 176.441 34.2822 175.692 32.5768C174.943 30.8714 173.386 29.6041 171.365 29.0536C169.343 28.503 167.023 28.7144 164.913 29.6412ZM114.007 52.0065C114.429 51.8211 114.893 51.7788 115.297 51.889C115.701 51.9991 116.013 52.2525 116.162 52.5936C116.312 52.9347 116.288 53.3354 116.096 53.7077C115.904 54.0799 115.559 54.3932 115.137 54.5785C114.51 54.8539 113.933 55.2263 113.439 55.6746C112.946 56.1229 112.544 56.6382 112.258 57.1912C111.973 57.7441 111.808 58.3239 111.774 58.8973C111.74 59.4708 111.837 60.0267 112.059 60.5333C112.282 61.04 112.626 61.4875 113.071 61.8502C113.517 62.2129 114.055 62.4837 114.656 62.6473C115.256 62.8108 115.907 62.8639 116.571 62.8034C117.236 62.7429 117.9 62.57 118.527 62.2947C118.949 62.1093 119.413 62.067 119.817 62.1771C120.221 62.2872 120.533 62.5407 120.683 62.8818C120.832 63.2229 120.808 63.6236 120.616 63.9959C120.424 64.3681 120.079 64.6814 119.657 64.8667C117.547 65.7935 115.226 66.0049 113.205 65.4544C111.183 64.9039 109.627 63.6366 108.878 61.9312C108.128 60.2258 108.248 58.2221 109.21 56.3609C110.172 54.4996 111.897 52.9333 114.007 52.0065ZM155.16 24.7208C155.582 24.5354 155.927 24.2221 156.119 23.8499C156.311 23.4776 156.335 23.0769 156.185 22.7358C156.036 22.3948 155.724 22.1413 155.32 22.0312C154.916 21.9211 154.452 21.9634 154.03 22.1487C153.608 22.3341 153.263 22.6473 153.07 23.0196C152.878 23.3918 152.854 23.7926 153.004 24.1337C153.154 24.4747 153.465 24.7282 153.869 24.8383C154.274 24.9484 154.738 24.9061 155.16 24.7208ZM168.72 55.5853C169.142 55.4 169.487 55.0867 169.679 54.7144C169.872 54.3422 169.895 53.9415 169.746 53.6004C169.596 53.2593 169.284 53.0058 168.88 52.8957C168.476 52.7856 168.012 52.8279 167.59 53.0133C167.168 53.1986 166.823 53.5119 166.63 53.8841C166.438 54.2564 166.414 54.6571 166.564 54.9982C166.714 55.3393 167.025 55.5928 167.429 55.7029C167.834 55.813 168.298 55.7707 168.72 55.5853ZM130.54 72.3593C130.962 72.1739 131.307 71.8606 131.499 71.4884C131.692 71.1161 131.716 70.7154 131.566 70.3743C131.416 70.0332 131.105 69.7798 130.7 69.6697C130.296 69.5596 129.832 69.6018 129.41 69.7872C128.988 69.9726 128.643 70.2858 128.451 70.6581C128.258 71.0303 128.234 71.4311 128.384 71.7721C128.534 72.1132 128.845 72.3667 129.25 72.4768C129.654 72.5869 130.118 72.5446 130.54 72.3593ZM116.98 41.4947C117.402 41.3093 117.747 40.9961 117.939 40.6238C118.132 40.2516 118.156 39.8508 118.006 39.5098C117.856 39.1687 117.545 38.9152 117.14 38.8051C116.736 38.695 116.272 38.7373 115.85 38.9227C115.428 39.108 115.083 39.4213 114.891 39.7935C114.698 40.1658 114.674 40.5665 114.824 40.9076C114.974 41.2487 115.285 41.5021 115.69 41.6122C116.094 41.7223 116.558 41.6801 116.98 41.4947ZM145.11 53.6841C143 54.6109 140.679 54.8223 138.658 54.2718C136.637 53.7213 135.08 52.4539 134.331 50.7486C133.581 49.0432 133.701 47.0395 134.663 45.1782C135.625 43.317 137.35 41.7507 139.46 40.8239C141.569 39.8971 143.89 39.6857 145.912 40.2362C147.933 40.7867 149.49 42.054 150.239 43.7594C150.988 45.4648 150.869 47.4685 149.907 49.3297C148.945 51.191 147.219 52.7573 145.11 53.6841ZM143.98 51.1121C144.607 50.8367 145.183 50.4643 145.677 50.016C146.171 49.5677 146.572 49.0524 146.858 48.4994C147.144 47.9465 147.308 47.3667 147.343 46.7933C147.377 46.2198 147.28 45.6639 147.057 45.1572C146.835 44.6506 146.491 44.2031 146.045 43.8404C145.6 43.4777 145.061 43.2069 144.461 43.0433C143.86 42.8797 143.209 42.8267 142.545 42.8872C141.881 42.9477 141.217 43.1206 140.59 43.3959C139.324 43.952 138.289 44.8918 137.712 46.0085C137.135 47.1253 137.063 48.3275 137.512 49.3507C137.962 50.374 138.896 51.1344 140.109 51.4647C141.322 51.795 142.714 51.6681 143.98 51.1121ZM162.445 15.3832C161.818 15.6585 161.153 15.8314 160.489 15.8919C159.825 15.9524 159.174 15.8994 158.573 15.7358C157.973 15.5723 157.435 15.3014 156.989 14.9387C156.544 14.576 156.2 14.1285 155.977 13.6219C155.754 13.1152 155.658 12.5593 155.692 11.9858C155.726 11.4124 155.891 10.8326 156.176 10.2797C156.462 9.72672 156.863 9.21139 157.357 8.76312C157.851 8.31485 158.428 7.9424 159.055 7.66705C160.32 7.11096 161.713 6.98412 162.926 7.31443C164.139 7.64475 165.072 8.40516 165.522 9.42838C165.972 10.4516 165.9 11.6538 165.323 12.7706C164.746 13.8873 163.71 14.8271 162.445 15.3832ZM161.315 12.8111C161.736 12.6258 162.082 12.3125 162.274 11.9403C162.466 11.568 162.49 11.1673 162.34 10.8262C162.191 10.4851 161.879 10.2317 161.475 10.1216C161.071 10.0115 160.606 10.0537 160.185 10.2391C159.763 10.4245 159.418 10.7377 159.225 11.11C159.033 11.4822 159.009 11.883 159.159 12.224C159.309 12.5651 159.62 12.8186 160.024 12.9287C160.428 13.0388 160.893 12.9965 161.315 12.8111ZM115.241 59.1355C114.93 58.4282 115.392 57.535 116.267 57.1506L122.63 54.3549C123.052 54.1696 123.516 54.1273 123.92 54.2374C124.325 54.3475 124.636 54.601 124.786 54.942C124.936 55.2831 124.912 55.6839 124.719 56.0561C124.527 56.4284 124.182 56.7416 123.76 56.927L117.397 59.7226C116.975 59.908 116.511 59.9503 116.106 59.8402C115.702 59.7301 115.391 59.4766 115.241 59.1355ZM159.784 39.5659C159.473 38.8586 159.935 37.9654 160.81 37.581L167.173 34.7853C167.595 34.6 168.059 34.5577 168.463 34.6678C168.868 34.7779 169.179 35.0314 169.329 35.3724C169.479 35.7135 169.455 36.1143 169.262 36.4865C169.07 36.8588 168.725 37.172 168.303 37.3574L161.94 40.153C161.518 40.3384 161.054 40.3807 160.649 40.2706C160.245 40.1605 159.934 39.907 159.784 39.5659ZM172.927 52.2026C172.616 51.4952 173.078 50.602 173.953 50.2176L180.316 47.422C180.738 47.2366 181.202 47.1943 181.607 47.3044C182.011 47.4145 182.322 47.668 182.472 48.0091C182.622 48.3501 182.598 48.7509 182.406 49.1231C182.213 49.4954 181.868 49.8086 181.446 49.994L175.083 52.7897C174.661 52.975 174.197 53.0173 173.793 52.9072C173.388 52.7971 173.077 52.5436 172.927 52.2026ZM116.453 77.014C116.142 76.3067 116.604 75.4135 117.479 75.0291L123.842 72.2334C124.264 72.048 124.728 72.0058 125.133 72.1159C125.537 72.226 125.848 72.4794 125.998 72.8205C126.148 73.1616 126.124 73.5623 125.932 73.9346C125.739 74.3068 125.394 74.6201 124.972 74.8055L118.609 77.6011C118.187 77.7865 117.723 77.8288 117.318 77.7186C116.914 77.6085 116.603 77.3551 116.453 77.014ZM102.893 46.1494C102.582 45.4421 103.044 44.5489 103.919 44.1645L110.282 41.3689C110.704 41.1835 111.168 41.1412 111.572 41.2513C111.977 41.3614 112.288 41.6149 112.438 41.956C112.588 42.297 112.564 42.6978 112.371 43.07C112.179 43.4423 111.834 43.7555 111.412 43.9409L105.049 46.7366C104.627 46.9219 104.163 46.9642 103.758 46.8541C103.354 46.744 103.043 46.4905 102.893 46.1494ZM159.367 21.338C159.056 20.6307 159.518 19.7375 160.393 19.3531L166.756 16.5574C167.178 16.372 167.642 16.3298 168.047 16.4399C168.451 16.55 168.762 16.8034 168.912 17.1445C169.062 17.4856 169.038 17.8863 168.846 18.2586C168.653 18.6308 168.308 18.9441 167.886 19.1295L161.523 21.9251C161.101 22.1105 160.637 22.1528 160.233 22.0426C159.828 21.9325 159.517 21.6791 159.367 21.338ZM182.785 61.68C181.519 62.2361 180.126 62.3629 178.914 62.0326C177.701 61.7023 176.767 60.9419 176.317 59.9187C175.868 58.8955 175.939 57.6932 176.516 56.5765C177.094 55.4598 178.129 54.52 179.395 53.9639C180.66 53.4078 182.053 53.281 183.266 53.6113C184.479 53.9416 185.413 54.702 185.862 55.7252C186.312 56.7484 186.24 57.9506 185.663 59.0674C185.086 60.1841 184.05 61.1239 182.785 61.68ZM181.655 59.108C182.077 58.9226 182.422 58.6093 182.614 58.2371C182.806 57.8649 182.83 57.4641 182.68 57.123C182.531 56.782 182.219 56.5285 181.815 56.4184C181.411 56.3083 180.947 56.3506 180.525 56.5359C180.103 56.7213 179.758 57.0346 179.565 57.4068C179.373 57.779 179.349 58.1798 179.499 58.5209C179.649 58.8619 179.96 59.1154 180.364 59.2255C180.769 59.3356 181.233 59.2933 181.655 59.108ZM125.515 86.8409C124.249 87.397 122.857 87.5238 121.644 87.1935C120.431 86.8632 119.497 86.1028 119.048 85.0796C118.598 84.0564 118.67 82.8542 119.247 81.7374C119.824 80.6207 120.859 79.6809 122.125 79.1248C123.391 78.5687 124.783 78.4419 125.996 78.7722C127.209 79.1025 128.143 79.8629 128.593 80.8861C129.042 81.9093 128.97 83.1116 128.393 84.2283C127.816 85.345 126.781 86.2848 125.515 86.8409ZM124.385 84.2689C124.807 84.0835 125.152 83.7702 125.345 83.398C125.537 83.0258 125.561 82.625 125.411 82.2839C125.261 81.9429 124.95 81.6894 124.545 81.5793C124.141 81.4692 123.677 81.5115 123.255 81.6968C122.833 81.8822 122.488 82.1955 122.296 82.5677C122.103 82.9399 122.079 83.3407 122.229 83.6818C122.379 84.0228 122.69 84.2763 123.095 84.3864C123.499 84.4965 123.963 84.4542 124.385 84.2689ZM105.175 40.5441C104.548 40.8194 103.884 40.9923 103.22 41.0528C102.555 41.1133 101.904 41.0603 101.304 40.8967C100.703 40.7332 100.165 40.4623 99.7195 40.0996C99.274 39.7369 98.9301 39.2894 98.7075 38.7828C98.4849 38.2761 98.388 37.7202 98.4222 37.1467C98.4563 36.5733 98.621 35.9935 98.9068 35.4406C99.1926 34.8876 99.5938 34.3723 100.088 33.924C100.581 33.4757 101.158 33.1033 101.785 32.828C103.051 32.2719 104.443 32.145 105.656 32.4753C106.869 32.8056 107.803 33.5661 108.252 34.5893C108.702 35.6125 108.63 36.8147 108.053 37.9315C107.476 39.0482 106.441 39.988 105.175 40.5441ZM104.045 37.972C104.467 37.7867 104.812 37.4734 105.004 37.1012C105.197 36.7289 105.221 36.3282 105.071 35.9871C104.921 35.646 104.61 35.3926 104.205 35.2825C103.801 35.1724 103.337 35.2146 102.915 35.4C102.493 35.5854 102.148 35.8986 101.956 36.2709C101.763 36.6431 101.739 37.0439 101.889 37.3849C102.039 37.726 102.35 37.9795 102.755 38.0896C103.159 38.1997 103.623 38.1574 104.045 37.972ZM142.85 48.54C143.272 48.3546 143.617 48.0414 143.809 47.6691C144.002 47.2969 144.026 46.8961 143.876 46.5551C143.726 46.214 143.414 45.9605 143.01 45.8504C142.606 45.7403 142.142 45.7826 141.72 45.968C141.298 46.1533 140.953 46.4666 140.76 46.8388C140.568 47.2111 140.544 47.6118 140.694 47.9529C140.844 48.294 141.155 48.5474 141.559 48.6575C141.964 48.7677 142.428 48.7254 142.85 48.54Z" fill="#3F3641" fill-opacity="0.05"/>
</g>
<defs>
<clipPath id="clip0">
<rect width="76.4536" height="61.8053" fill="white" transform="translate(4.57764e-05 8.50464) rotate(-23.7179)"/>
</clipPath>
<clipPath id="clip1">
<rect width="76.4536" height="61.8053" fill="white" transform="translate(24.8607 65.0889) rotate(-23.7179)"/>
</clipPath>
<clipPath id="clip2">
<rect width="76.4536" height="61.8053" fill="white" transform="translate(69.9958 -22.2474) rotate(-23.7179)"/>
</clipPath>
<clipPath id="clip3">
<rect width="76.4536" height="61.8053" fill="white" transform="translate(94.8567 34.3376) rotate(-23.7179)"/>
</clipPath>
</defs>
</svg>
