<svg width="24" height="24" viewBox="0 0 24 24" fill="none" xmlns="http://www.w3.org/2000/svg">
<path d="M21.1126 10.3309L19.1319 8.35086C19.1045 8.32342 19.072 8.30165 19.0362 8.28679C19.0004 8.27193 18.9621 8.26428 18.9233 8.26428C18.8846 8.26428 18.8462 8.27193 18.8104 8.28679C18.7746 8.30165 18.7421 8.32342 18.7147 8.35086L13.2948 13.7701L13.3056 13.7809L13.2883 13.7761L12.5465 16.5442L12.5487 16.5447C12.5299 16.5989 12.5276 16.6575 12.542 16.713C12.5565 16.7685 12.5871 16.8185 12.6299 16.8567C12.6728 16.8948 12.726 16.9194 12.7828 16.9274C12.8396 16.9353 12.8975 16.9263 12.9492 16.9013L12.9497 16.9035L15.6893 16.1693L15.6876 16.1629L15.6922 16.1674L21.1123 10.7475C21.1675 10.6922 21.1985 10.6173 21.1985 10.5392C21.1986 10.4611 21.1677 10.3862 21.1126 10.3309ZM13.4484 16.0073L13.8891 14.3643L15.0919 15.5672L13.4484 16.0073Z" fill="#7969AC"/>
<path d="M17.2721 17.5752H15.4759H15.4757C15.3975 17.5754 15.3226 17.6065 15.2673 17.6618C15.2121 17.7171 15.181 17.792 15.181 17.8702L15.1814 17.8731V19.9647H5.18687V5.23418H6.38615V5.97074C6.38567 5.97866 6.38375 5.98586 6.38375 5.99402C6.38375 6.23354 6.57815 6.42938 6.81911 6.42938L6.82247 6.42914V6.43106H13.549C13.6643 6.43094 13.7749 6.38505 13.8565 6.30348C13.9381 6.22191 13.9839 6.11131 13.9841 5.99594C13.9841 5.99234 13.9831 5.98898 13.9831 5.98538V5.23418H15.1812V7.3265L15.1807 7.32938C15.1807 7.36812 15.1882 7.40648 15.203 7.44228C15.2178 7.47808 15.2395 7.51061 15.2669 7.53801C15.2943 7.56541 15.3268 7.58714 15.3626 7.60195C15.3983 7.61677 15.4367 7.62438 15.4754 7.62434H17.2718C17.35 7.62428 17.4249 7.59321 17.4802 7.53795C17.5354 7.4827 17.5665 7.40777 17.5666 7.32962V4.14242H17.562C17.5622 4.13066 17.5656 4.11962 17.5656 4.10762C17.5656 3.77394 17.4331 3.4539 17.1972 3.21786C16.9614 2.98181 16.6414 2.84908 16.3078 2.84882C16.2982 2.84882 16.2895 2.85146 16.2799 2.8517H12.7862V2.03474C12.7862 1.8233 12.6149 1.65242 12.4039 1.65194V1.65002H7.97591V1.65146C7.97231 1.65146 7.96919 1.6505 7.96559 1.6505C7.75439 1.6505 7.58303 1.82162 7.58303 2.03306L7.58375 2.04026V2.85146H4.06439L4.05959 2.85098C3.72601 2.85137 3.40619 2.98407 3.17033 3.21997C2.93447 3.45588 2.80183 3.77572 2.80151 4.1093C2.80151 4.12058 2.80463 4.1309 2.80487 4.14218H2.80151V21.0795H2.80223L2.80151 21.0859C2.80158 21.2511 2.83418 21.4147 2.89745 21.5672C2.96072 21.7198 3.05343 21.8584 3.17028 21.9751C3.28713 22.0919 3.42583 22.1845 3.57846 22.2476C3.73109 22.3107 3.89466 22.3432 4.05983 22.3431C4.07855 22.3431 4.09607 22.3383 4.11479 22.3375V22.3426H16.2348C16.2583 22.3438 16.2806 22.3495 16.3044 22.3495C16.6378 22.3495 16.9575 22.217 17.1933 21.9813C17.4291 21.7456 17.5616 21.4258 17.5618 21.0924C17.5618 21.0879 17.5606 21.0838 17.5606 21.0792H17.5673V17.8699C17.5672 17.8312 17.5596 17.7929 17.5447 17.7571C17.5299 17.7213 17.5081 17.6888 17.4807 17.6614C17.4533 17.6341 17.4208 17.6124 17.385 17.5976C17.3492 17.5828 17.3108 17.5752 17.2721 17.5752Z" fill="#7969AC" stroke="#7969AC"/>
</svg>
